<?xml version="1.0" encoding="UTF-8"?>
<svg version="1.1" xmlns="http://www.w3.org/2000/svg" width="200" height="200">
<path d="M0 0 C66 0 132 0 200 0 C200 66 200 132 200 200 C134 200 68 200 0 200 C0 134 0 68 0 0 Z " fill="#00B0FC" transform="translate(0,0)"/>
<path d="M0 0 C2.7578125 -0.0234375 2.7578125 -0.0234375 6 1 C7.82489807 3.5802418 8.81084375 6.41471079 9.875 9.375 C10.18179688 10.15617187 10.48859375 10.93734375 10.8046875 11.7421875 C13 17.4656808 13 17.4656808 13 21 C15.97851562 21.29296875 15.97851562 21.29296875 18.95703125 21.5859375 C21 22 21 22 24 24 C24 24.99 24 25.98 24 27 C17.40452261 27.13190955 17.40452261 27.13190955 14.125 26.0625 C8.92814439 25.95856289 5.74039124 29.6668958 2 33 C2.71285156 33.63164063 3.42570312 34.26328125 4.16015625 34.9140625 C14.38049178 44.46037859 20.51185442 54.29485397 21.16796875 68.68359375 C21.24882682 84.22451492 17.36755814 94.73920993 6.734375 106.3203125 C5 108 5 108 3 109 C2.59270772 111.32156597 2.25561323 113.6568787 2 116 C-3.625 118.125 -3.625 118.125 -7 117 C-8.794375 117.4640625 -8.794375 117.4640625 -10.625 117.9375 C-24.95219384 121.32095783 -37.63659651 118.41364156 -51 113 C-51 112.34 -51 111.68 -51 111 C-51.99 111.33 -52.98 111.66 -54 112 C-54 113.32 -54 114.64 -54 116 C-52.68 116.66 -51.36 117.32 -50 118 C-50.99 118.66 -51.98 119.32 -53 120 C-52.67 120.99 -52.34 121.98 -52 123 C-49.41471924 124.11539972 -49.41471924 124.11539972 -46 125 C-45.29746094 125.2371875 -44.59492187 125.474375 -43.87109375 125.71875 C-36.70657926 128.0793808 -29.47120072 129.08493939 -22 130 C-22 130.33 -22 130.66 -22 131 C-38.33325192 131.50515212 -51.78852632 127.93986269 -65 118 C-66.68370578 116.33405483 -68.15898819 114.66069303 -69.5859375 112.7734375 C-71.06308304 110.83013394 -71.06308304 110.83013394 -73.40234375 108.7734375 C-76.46264178 105.50605163 -78.24600935 102.24651877 -80.1875 98.25 C-80.52974609 97.58484375 -80.87199219 96.9196875 -81.22460938 96.234375 C-87.37954768 83.80498502 -88.19981947 68.20474825 -84.3125 54.9375 C-83.5850228 52.94198963 -82.81653336 50.96075445 -82 49 C-81.649375 48.12085938 -81.29875 47.24171875 -80.9375 46.3359375 C-74.87754577 32.74312349 -61.81761619 21.30210854 -48 16 C-37.36833007 12.63692074 -26.96252024 11.97413933 -16 14 C-16.309375 12.576875 -16.309375 12.576875 -16.625 11.125 C-16.74875 10.09375 -16.8725 9.0625 -17 8 C-16.34 7.34 -15.68 6.68 -15 6 C-12.38419521 6.3269756 -10.35921863 6.82039068 -8 8 C-7.01 7.34 -6.02 6.68 -5 6 C-4.01 6 -3.02 6 -2 6 C-1.34 4.02 -0.68 2.04 0 0 Z " fill="#D2F7FB" transform="translate(126,34)"/>
<path d="M0 0 C0.33 0 0.66 0 1 0 C1.33848652 1.89492006 1.67056911 3.79098466 2 5.6875 C2.185625 6.74324219 2.37125 7.79898438 2.5625 8.88671875 C2.95068074 11.64904062 3.08259976 14.21742043 3 17 C1.56208484 16.85831863 0.1246763 16.71148957 -1.3125 16.5625 C-2.11300781 16.48128906 -2.91351563 16.40007813 -3.73828125 16.31640625 C-6 16 -6 16 -9 15 C-9.495 12.03 -9.495 12.03 -10 9 C-11.32 9 -12.64 9 -14 9 C-13.9175 10.216875 -13.835 11.43375 -13.75 12.6875 C-13.72528316 16.16639526 -13.95888443 16.93832664 -16 20 C-16.66 20.66 -17.32 21.32 -18 22 C-16.63875 21.5359375 -16.63875 21.5359375 -15.25 21.0625 C-14.1775 20.711875 -13.105 20.36125 -12 20 C-11.3709375 19.7834375 -10.741875 19.566875 -10.09375 19.34375 C-7.4087168 18.90292365 -5.78884608 19.5041007 -3.25 20.4375 C-2.45078125 20.72496094 -1.6515625 21.01242188 -0.828125 21.30859375 C-0.22484375 21.53675781 0.3784375 21.76492187 1 22 C-0.87861272 29.65895954 -0.87861272 29.65895954 -4 32 C-4.99 32.495 -4.99 32.495 -6 33 C-6 33.66 -6 34.32 -6 35 C-4.88625 35.2475 -3.7725 35.495 -2.625 35.75 C1 37 1 37 2.5 38.9375 C3 41 3 41 2 44 C2.91265625 43.88398437 3.8253125 43.76796875 4.765625 43.6484375 C8 44 8 44 10.046875 46.4140625 C10.60890625 47.47367188 11.1709375 48.53328125 11.75 49.625 C12.32234375 50.66914062 12.8946875 51.71328125 13.484375 52.7890625 C16.51568701 59.21106887 17 62.52925019 17 70 C11.72 70 6.44 70 1 70 C-0.41000419 67.17999162 -0.37608381 64.40642297 -0.62109375 61.2890625 C-1.02249448 58.86410551 -1.79862685 57.1303702 -3 55 C-2.90460938 56.01578125 -2.80921875 57.0315625 -2.7109375 58.078125 C-1.98101761 66.73892549 -2.06471014 74.45760591 -4 83 C-4.19207031 83.90363281 -4.38414063 84.80726562 -4.58203125 85.73828125 C-5.03421785 87.83005091 -5.51370882 89.91589494 -6 92 C-11.7924724 91.36809392 -17.32598399 90.3298475 -23 89 C-23 83.72 -23 78.44 -23 73 C-17.39 73 -11.78 73 -6 73 C-6 72.34 -6 71.68 -6 71 C-7.14339844 71.01160156 -8.28679687 71.02320312 -9.46484375 71.03515625 C-10.95572754 71.04453288 -12.44661309 71.05363321 -13.9375 71.0625 C-14.69224609 71.07087891 -15.44699219 71.07925781 -16.22460938 71.08789062 C-18.14994313 71.09652441 -20.07535581 71.05224333 -22 71 C-23 70 -23 70 -23.09765625 66.40234375 C-23.0909822 64.91403133 -23.07902183 63.42573568 -23.0625 61.9375 C-23.05798828 61.17888672 -23.05347656 60.42027344 -23.04882812 59.63867188 C-23.0370068 57.75908129 -23.01907078 55.87953101 -23 54 C-22.03578125 53.80664062 -21.0715625 53.61328125 -20.078125 53.4140625 C-18.81484375 53.15367188 -17.5515625 52.89328125 -16.25 52.625 C-14.99703125 52.36976562 -13.7440625 52.11453125 -12.453125 51.8515625 C-9.63659152 51.1569875 -7.48481248 50.44319917 -5 49 C-6.54058233 43.98491285 -8.02931839 39.3852919 -11 35 C-11.99 35.99 -11.99 35.99 -13 37 C-12.54947266 37.81404297 -12.54947266 37.81404297 -12.08984375 38.64453125 C-11.70957031 39.35996094 -11.32929687 40.07539062 -10.9375 40.8125 C-10.55464844 41.52019531 -10.17179687 42.22789063 -9.77734375 42.95703125 C-9 45 -9 45 -10 48 C-15.05293567 49.92011555 -18.41294508 50 -24 50 C-24 43.4 -24 36.8 -24 30 C-24.66 30 -25.32 30 -26 30 C-26 36.6 -26 43.2 -26 50 C-32.02793513 50 -35.4531674 49.55700564 -41 48 C-40.43912318 43.70773434 -38.91668941 40.99815509 -36.5 37.4375 C-33.50785009 33.03346552 -33.50785009 33.03346552 -32 28 C-43.44023488 29.12273033 -50.12688055 32.88830117 -58 41 C-58.66 41 -59.32 41 -60 41 C-60.268125 41.54140625 -60.53625 42.0828125 -60.8125 42.640625 C-61.67124691 44.34681952 -62.54866641 46.04365892 -63.4375 47.734375 C-70.69635799 61.74397093 -71.98165939 74.31695813 -67.19921875 89.55078125 C-66.49063287 91.71012115 -65.75952621 93.85813609 -65 96 C-64.34 96 -63.68 96 -63 96 C-61.63636792 97.97946592 -60.30581356 99.9819245 -59 102 C-58.4225 102.5775 -57.845 103.155 -57.25 103.75 C-56 105 -56 105 -56 107 C-54.8553125 107.4021875 -54.8553125 107.4021875 -53.6875 107.8125 C-51 109 -51 109 -49.66796875 110.44140625 C-47.50242058 112.46495126 -45.41598591 113.15388984 -42.625 114.125 C-41.68914062 114.45757812 -40.75328125 114.79015625 -39.7890625 115.1328125 C-28.50988138 118.63978478 -15.46813844 118.13043816 -4.765625 112.91015625 C-3.15594025 111.97560787 -1.57452768 110.99263702 0 110 C0.66 110 1.32 110 2 110 C2 111.98 2 113.96 2 116 C-3.625 118.125 -3.625 118.125 -7 117 C-8.794375 117.4640625 -8.794375 117.4640625 -10.625 117.9375 C-24.95219384 121.32095783 -37.63659651 118.41364156 -51 113 C-51 112.34 -51 111.68 -51 111 C-51.99 111.33 -52.98 111.66 -54 112 C-54 113.32 -54 114.64 -54 116 C-52.68 116.66 -51.36 117.32 -50 118 C-50.99 118.66 -51.98 119.32 -53 120 C-52.67 120.99 -52.34 121.98 -52 123 C-49.41471924 124.11539972 -49.41471924 124.11539972 -46 125 C-45.29746094 125.2371875 -44.59492187 125.474375 -43.87109375 125.71875 C-36.70657926 128.0793808 -29.47120072 129.08493939 -22 130 C-22 130.33 -22 130.66 -22 131 C-38.33325192 131.50515212 -51.78852632 127.93986269 -65 118 C-66.68370578 116.33405483 -68.15898819 114.66069303 -69.5859375 112.7734375 C-71.06308304 110.83013394 -71.06308304 110.83013394 -73.40234375 108.7734375 C-76.46264178 105.50605163 -78.24600935 102.24651877 -80.1875 98.25 C-80.52974609 97.58484375 -80.87199219 96.9196875 -81.22460938 96.234375 C-87.37954768 83.80498502 -88.19981947 68.20474825 -84.3125 54.9375 C-83.5850228 52.94198963 -82.81653336 50.96075445 -82 49 C-81.649375 48.12085938 -81.29875 47.24171875 -80.9375 46.3359375 C-74.87754577 32.74312349 -61.81761619 21.30210854 -48 16 C-37.36833007 12.63692074 -26.96252024 11.97413933 -16 14 C-16.309375 12.576875 -16.309375 12.576875 -16.625 11.125 C-16.74875 10.09375 -16.8725 9.0625 -17 8 C-16.34 7.34 -15.68 6.68 -15 6 C-12.38419521 6.3269756 -10.35921863 6.82039068 -8 8 C-7.01 7.34 -6.02 6.68 -5 6 C-4.01 6 -3.02 6 -2 6 C-1.34 4.02 -0.68 2.04 0 0 Z " fill="#0CACF4" transform="translate(126,34)"/>
<path d="M0 0 C0.495 1.485 0.495 1.485 1 3 C-2.75 6.875 -2.75 6.875 -5 8 C-5 8.66 -5 9.32 -5 10 C-3.329375 10.37125 -3.329375 10.37125 -1.625 10.75 C2 12 2 12 3.5 13.9375 C4 16 4 16 3 19 C4.36898437 18.82597656 4.36898437 18.82597656 5.765625 18.6484375 C9 19 9 19 11.046875 21.4140625 C11.60890625 22.47367188 12.1709375 23.53328125 12.75 24.625 C13.32234375 25.66914062 13.8946875 26.71328125 14.484375 27.7890625 C17.51568701 34.21106887 18 37.52925019 18 45 C12.72 45 7.44 45 2 45 C0.58999581 42.17999162 0.62391619 39.40642297 0.37890625 36.2890625 C-0.02249448 33.86410551 -0.79862685 32.1303702 -2 30 C-1.90460938 31.01578125 -1.80921875 32.0315625 -1.7109375 33.078125 C-0.98101761 41.73892549 -1.06471014 49.45760591 -3 58 C-3.28810547 59.35544922 -3.28810547 59.35544922 -3.58203125 60.73828125 C-4.03421785 62.83005091 -4.51370882 64.91589494 -5 67 C-10.7924724 66.36809392 -16.32598399 65.3298475 -22 64 C-22 58.72 -22 53.44 -22 48 C-16.39 48 -10.78 48 -5 48 C-5 47.34 -5 46.68 -5 46 C-6.14339844 46.01160156 -7.28679687 46.02320313 -8.46484375 46.03515625 C-9.95572754 46.04453288 -11.44661309 46.05363321 -12.9375 46.0625 C-13.69224609 46.07087891 -14.44699219 46.07925781 -15.22460938 46.08789062 C-17.14994313 46.09652441 -19.07535581 46.05224333 -21 46 C-22 45 -22 45 -22.09765625 41.40234375 C-22.0909822 39.91403133 -22.07902183 38.42573568 -22.0625 36.9375 C-22.05798828 36.17888672 -22.05347656 35.42027344 -22.04882812 34.63867188 C-22.0370068 32.75908129 -22.01907078 30.87953101 -22 29 C-21.03578125 28.80664062 -20.0715625 28.61328125 -19.078125 28.4140625 C-17.18320313 28.02347656 -17.18320313 28.02347656 -15.25 27.625 C-13.99703125 27.36976562 -12.7440625 27.11453125 -11.453125 26.8515625 C-8.63659152 26.1569875 -6.48481248 25.44319917 -4 24 C-5.54058233 18.98491285 -7.02931839 14.3852919 -10 10 C-10.66 10.66 -11.32 11.32 -12 12 C-11.69964844 12.54269531 -11.39929688 13.08539063 -11.08984375 13.64453125 C-10.70957031 14.35996094 -10.32929687 15.07539062 -9.9375 15.8125 C-9.55464844 16.52019531 -9.17179687 17.22789063 -8.77734375 17.95703125 C-8 20 -8 20 -9 23 C-14.05293567 24.92011555 -17.41294508 25 -23 25 C-23 18.4 -23 11.8 -23 5 C-23.66 5 -24.32 5 -25 5 C-25 11.6 -25 18.2 -25 25 C-31.02793513 25 -34.4531674 24.55700564 -40 23 C-39.43912318 18.70773434 -37.91668941 15.99815509 -35.5 12.4375 C-32.50785009 8.03346552 -32.50785009 8.03346552 -31 3 C-33.64 3.33 -36.28 3.66 -39 4 C-34.7290125 -0.2709875 -28.48325423 0.76475894 -22.79907227 0.74023438 C-15.89108623 0.81678531 -9.641602 2.05949716 -3 4 C-2.01 2.68 -1.02 1.36 0 0 Z " fill="#EDFBF9" transform="translate(125,59)"/>
<path d="M0 0 C2.26171875 -0.0234375 2.26171875 -0.0234375 5 1 C6.71491432 3.61193437 7.73160615 6.45443914 8.8125 9.375 C9.27946289 10.54675781 9.27946289 10.54675781 9.75585938 11.7421875 C12 17.50297047 12 17.50297047 12 21 C13.98567708 21.1953125 15.97135417 21.390625 17.95703125 21.5859375 C20 22 20 22 23 24 C23 24.99 23 25.98 23 27 C16.40452261 27.13190955 16.40452261 27.13190955 13.125 26.0625 C7.92814439 25.95856289 4.74039124 29.6668958 1 33 C1.71285156 33.63164063 2.42570312 34.26328125 3.16015625 34.9140625 C13.38049178 44.46037859 19.51185442 54.29485397 20.16796875 68.68359375 C20.24540399 83.56664617 16.75859914 94.85637202 6.3203125 105.9296875 C-1.69620593 113.0824733 -12.11890177 118 -23 118 C-23 117.01 -23 116.02 -23 115 C-22.01 115 -21.02 115 -20 115 C-19.74347656 114.27941406 -19.48695312 113.55882812 -19.22265625 112.81640625 C-17.53324538 108.92482403 -15.07453653 105.79703577 -12.55859375 102.40234375 C-10.74174298 99.88653786 -10.74174298 99.88653786 -10 96 C-14.95 95.01 -19.9 94.02 -25 93 C-25 100.59 -25 108.18 -25 116 C-27.64 116 -30.28 116 -33 116 C-33 115.67 -33 115.34 -33 115 C-30.525 114.505 -30.525 114.505 -28 114 C-28 107.07 -28 100.14 -28 93 C-30.31 92.67 -32.62 92.34 -35 92 C-35 91.67 -35 91.34 -35 91 C-25.43532253 89.47130425 -16.49432706 90.653208 -7 92 C-6.87625 90.7625 -6.7525 89.525 -6.625 88.25 C-6.34206769 85.5704646 -5.99363609 82.96890776 -5.453125 80.328125 C-3.62680478 71.39396393 -4.20997773 63.01052431 -5 54 C-2.39724629 55.30137685 -2.06833648 56.31546219 -1 59 C-0.45790197 62.66171878 -0.26405733 66.30319743 0 70 C5.28 70 10.56 70 16 70 C14.98209827 62.26394686 13.03764219 56.4024647 9.33984375 49.53125 C8 47 8 47 7 44 C3.535 44.495 3.535 44.495 0 45 C0.2784375 43.8553125 0.2784375 43.8553125 0.5625 42.6875 C1.22819173 39.91032625 1.22819173 39.91032625 0 37 C-2.31 36.67 -4.62 36.34 -7 36 C-7 34.68 -7 33.36 -7 32 C-5.68 31.67 -4.36 31.34 -3 31 C-2.34 28.03 -1.68 25.06 -1 22 C-2.78871178 21.61114961 -4.58112874 21.23930804 -6.375 20.875 C-7.87160156 20.56175781 -7.87160156 20.56175781 -9.3984375 20.2421875 C-10.68621094 20.12230469 -10.68621094 20.12230469 -12 20 C-12.66 20.66 -13.32 21.32 -14 22 C-16.625 22.125 -16.625 22.125 -19 22 C-17.125 18.125 -17.125 18.125 -16 17 C-15.76924918 15.65252916 -15.58846937 14.29622435 -15.4375 12.9375 C-15.293125 11.638125 -15.14875 10.33875 -15 9 C-13.68 9 -12.36 9 -11 9 C-10.67 10.98 -10.34 12.96 -10 15 C-4.06 15.99 -4.06 15.99 2 17 C1.505 14.463125 1.505 14.463125 1 11.875 C0.26308623 7.85311148 -0.22180103 4.10331912 0 0 Z " fill="#DAF8F9" transform="translate(127,34)"/>
<path d="M0 0 C-0.50769335 4.77372777 -1.80946647 7.73440053 -4.5 11.6875 C-6.4136335 14.52265784 -7.91659491 16.74978474 -9 20 C-1.575 20.99 -1.575 20.99 6 22 C6 15.4 6 8.8 6 2 C6.66 2 7.32 2 8 2 C8 8.6 8 15.2 8 22 C15.18510914 21.18306955 15.18510914 21.18306955 22 19 C20.95902388 15.13351728 19.96301592 11.50538557 18 8 C18.66 8 19.32 8 20 8 C20.33 7.34 20.66 6.68 21 6 C27.70387244 16.37357631 27.70387244 16.37357631 28 22 C26.75108386 22.48198463 25.50081192 22.96045677 24.25 23.4375 C23.55390625 23.70433594 22.8578125 23.97117187 22.140625 24.24609375 C17.30334706 25.94973361 14.53047176 26 9 26 C9.495 33.92 9.495 33.92 10 42 C15.28 42.33 20.56 42.66 26 43 C26 43.66 26 44.32 26 45 C17.585 45.495 17.585 45.495 9 46 C8.67 49.96 8.34 53.92 8 58 C7.67 58 7.34 58 7 58 C6.67 54.04 6.34 50.08 6 46 C-1.26 46 -8.52 46 -16 46 C-17.53199689 42.93600622 -17.19053239 39.73489095 -17.1875 36.375 C-17.18814453 35.653125 -17.18878906 34.93125 -17.18945312 34.1875 C-17.13960879 29.16681578 -16.59648224 24.78944671 -15 20 C-15.99 20 -16.98 20 -18 20 C-18.33 19.01 -18.66 18.02 -19 17 C-17.02 17 -15.04 17 -13 17 C-12.01 14.69 -11.02 12.38 -10 10 C-9.34 10 -8.68 10 -8 10 C-7.34 8.02 -6.68 6.04 -6 4 C-13.83709558 7.35976347 -13.83709558 7.35976347 -20 13 C-20 13.99 -20 14.98 -20 16 C-21.65 15.67 -23.3 15.34 -25 15 C-24.91828946 12.22184153 -24.45693162 10.49264865 -22.55078125 8.4375 C-20.75150373 6.87630476 -18.91186607 5.42059427 -17 4 C-16.195625 3.401875 -15.39125 2.80375 -14.5625 2.1875 C-9.89638331 0.02515324 -5.11065542 0 0 0 Z " fill="#D6F7FB" transform="translate(94,62)"/>
<path d="M0 0 C0 0.33 0 0.66 0 1 C-0.87398438 1.01417969 -1.74796875 1.02835938 -2.6484375 1.04296875 C-15.74869704 1.55105009 -29.89275281 3.53258505 -40.46875 11.86328125 C-42 13 -42 13 -44 13 C-44 13.66 -44 14.32 -44 15 C-45.5390625 16.4453125 -45.5390625 16.4453125 -47.625 18.125 C-56.93977524 26.15837758 -63.2018173 37.59943752 -64.16113281 50.09960938 C-64.53004925 69.81519023 -61.63997597 84.88374614 -48 100 C-35.73246911 110.56689188 -22.82418278 114.74463686 -7 116 C-7 116.33 -7 116.66 -7 117 C-23.33325192 117.50515212 -36.78852632 113.93986269 -50 104 C-51.68370578 102.33405483 -53.15898819 100.66069303 -54.5859375 98.7734375 C-56.06308304 96.83013394 -56.06308304 96.83013394 -58.40234375 94.7734375 C-61.46264178 91.50605163 -63.24600935 88.24651877 -65.1875 84.25 C-65.52974609 83.58484375 -65.87199219 82.9196875 -66.22460938 82.234375 C-72.37954768 69.80498502 -73.19981947 54.20474825 -69.3125 40.9375 C-68.5850228 38.94198963 -67.81653336 36.96075445 -67 35 C-66.649375 34.12085938 -66.29875 33.24171875 -65.9375 32.3359375 C-59.87754577 18.74312349 -46.81761619 7.30210854 -33 2 C-22.14026599 -1.43522198 -11.19778717 -2.08330924 0 0 Z " fill="#D2F6FB" transform="translate(111,48)"/>
<path d="M0 0 C2.60275371 1.30137685 2.93166352 2.31546219 4 5 C4.54209803 8.66171878 4.73594267 12.30319743 5 16 C11.27 16 17.54 16 24 16 C24 24 24 24 22 27 C22 24.69 22 22.38 22 20 C16.39 20 10.78 20 5 20 C4.896875 21.44375 4.79375 22.8875 4.6875 24.375 C4.23537519 29.06247043 3.15553302 33.23398336 1.62109375 37.67578125 C0.87279518 40.01913746 0.87279518 40.01913746 1.09765625 42.60546875 C1 45 1 45 -0.30078125 46.51953125 C-1.14189453 47.25236328 -1.14189453 47.25236328 -2 48 C-3.09372939 49.54080126 -4.15531225 51.10481211 -5.1875 52.6875 C-5.98220703 53.89986328 -5.98220703 53.89986328 -6.79296875 55.13671875 C-7.19128906 55.75160156 -7.58960937 56.36648437 -8 57 C-6.56208484 56.85831863 -5.1246763 56.71148957 -3.6875 56.5625 C-2.88699219 56.48128906 -2.08648437 56.40007812 -1.26171875 56.31640625 C1.16087179 56.04734307 1.16087179 56.04734307 4 55 C4 55.66 4 56.32 4 57 C-3.19138154 61.16845567 -9.75730553 63.05109875 -18 64 C-18 63.01 -18 62.02 -18 61 C-17.01 61 -16.02 61 -15 61 C-14.74347656 60.27941406 -14.48695312 59.55882812 -14.22265625 58.81640625 C-12.53324538 54.92482403 -10.07453653 51.79703577 -7.55859375 48.40234375 C-5.74174298 45.88653786 -5.74174298 45.88653786 -5 42 C-9.95 41.01 -14.9 40.02 -20 39 C-20 46.59 -20 54.18 -20 62 C-22.64 62 -25.28 62 -28 62 C-28 61.67 -28 61.34 -28 61 C-25.525 60.505 -25.525 60.505 -23 60 C-23 53.07 -23 46.14 -23 39 C-25.31 38.67 -27.62 38.34 -30 38 C-30 37.67 -30 37.34 -30 37 C-20.43532253 35.47130425 -11.49432706 36.653208 -2 38 C-1.87625 36.7625 -1.7525 35.525 -1.625 34.25 C-1.34206769 31.5704646 -0.99363609 28.96890776 -0.453125 26.328125 C1.37319522 17.39396393 0.79002227 9.01052431 0 0 Z " fill="#DFFAFB" transform="translate(122,88)"/>
<path d="M0 0 C2.26171875 -0.0234375 2.26171875 -0.0234375 5 1 C6.71491432 3.61193437 7.73160615 6.45443914 8.8125 9.375 C9.12380859 10.15617187 9.43511719 10.93734375 9.75585938 11.7421875 C12 17.50297047 12 17.50297047 12 21 C13.98567708 21.1953125 15.97135417 21.390625 17.95703125 21.5859375 C20 22 20 22 23 24 C23 24.99 23 25.98 23 27 C16.43163539 27.13136729 16.43163539 27.13136729 13.125 26.125 C8.10631768 25.92425271 4.8659328 29.03611819 1 32 C0.34 31.67 -0.32 31.34 -1 31 C-1 32.65 -1 34.3 -1 36 C-2.98 36 -4.96 36 -7 36 C-7 34.68 -7 33.36 -7 32 C-5.68 31.67 -4.36 31.34 -3 31 C-2.34 28.03 -1.68 25.06 -1 22 C-2.78871178 21.61114961 -4.58112874 21.23930804 -6.375 20.875 C-7.87160156 20.56175781 -7.87160156 20.56175781 -9.3984375 20.2421875 C-10.68621094 20.12230469 -10.68621094 20.12230469 -12 20 C-12.66 20.66 -13.32 21.32 -14 22 C-16.625 22.125 -16.625 22.125 -19 22 C-17.125 18.125 -17.125 18.125 -16 17 C-15.76924918 15.65252916 -15.58846937 14.29622435 -15.4375 12.9375 C-15.2209375 10.9884375 -15.2209375 10.9884375 -15 9 C-13.68 9 -12.36 9 -11 9 C-10.67 10.98 -10.34 12.96 -10 15 C-4.06 15.99 -4.06 15.99 2 17 C1.67 15.30875 1.34 13.6175 1 11.875 C0.26308623 7.85311148 -0.22180103 4.10331912 0 0 Z " fill="#E7F9FA" transform="translate(127,34)"/>
<path d="M0 0 C5 2 5 2 10 4 C10.20840316 8.16806324 9.70702382 11.66929626 8.53515625 15.6796875 C7.75352164 19.06867261 7.43138726 22.54890194 7 26 C1.39 26 -4.22 26 -10 26 C-9.86108572 16.83165735 -6.66315243 6.66315243 0 0 Z " fill="#03ACF9" transform="translate(69,78)"/>
<path d="M0 0 C1.75390625 2.4140625 1.75390625 2.4140625 3.5625 5.625 C4.16191406 6.66914062 4.76132813 7.71328125 5.37890625 8.7890625 C8.60007368 15.16930257 9 18.50106911 9 26 C3.72 26 -1.56 26 -7 26 C-8.42529895 23.1494021 -8.57725442 20.34157838 -9 17.1875 C-9.55239328 13.09202173 -10.13762055 9.04240367 -11 5 C-9.73461631 4.15841464 -8.46246221 3.32700252 -7.1875 2.5 C-6.47980469 2.0359375 -5.77210938 1.571875 -5.04296875 1.09375 C-3 0 -3 0 0 0 Z " fill="#0EB3F4" transform="translate(134,78)"/>
<path d="M0 0 C5.61 0 11.22 0 17 0 C17.28875 1.794375 17.5775 3.58875 17.875 5.4375 C18.74487611 10.67539689 19.79368847 15.83009343 21 21 C19.76055724 21.86941494 18.50792941 22.72005457 17.25 23.5625 C16.55390625 24.03816406 15.8578125 24.51382813 15.140625 25.00390625 C13 26 13 26 10.92578125 25.92578125 C6.02837752 23.57145126 3.66907097 16.89031203 1.94921875 12.03125 C0.76286287 7.84808045 0 4.37262466 0 0 Z " fill="#09ADF4" transform="translate(59,108)"/>
<path d="M0 0 C5.28 0 10.56 0 16 0 C15.46166114 9.55551477 13.03699032 17.4537621 7 25 C5.109375 25.80859375 5.109375 25.80859375 3 26 C1.078125 25.00390625 1.078125 25.00390625 -0.75 23.5625 C-1.36359375 23.08941406 -1.9771875 22.61632812 -2.609375 22.12890625 C-3.06828125 21.75636719 -3.5271875 21.38382813 -4 21 C-2.74595028 13.98265797 -1.41749069 6.98620411 0 0 Z " fill="#0CB5F4" transform="translate(127,108)"/>
<path d="M0 0 C0.33 0 0.66 0 1 0 C1.33848652 1.89492006 1.67056911 3.79098466 2 5.6875 C2.185625 6.74324219 2.37125 7.79898438 2.5625 8.88671875 C2.95068074 11.64904062 3.08259976 14.21742043 3 17 C1.56208484 16.85831863 0.1246763 16.71148957 -1.3125 16.5625 C-2.11300781 16.48128906 -2.91351563 16.40007813 -3.73828125 16.31640625 C-6 16 -6 16 -9 15 C-9.495 12.03 -9.495 12.03 -10 9 C-11.32 9 -12.64 9 -14 9 C-13.8453125 10.8253125 -13.8453125 10.8253125 -13.6875 12.6875 C-13.65408479 16.45005227 -13.90669702 16.88803642 -16.5 20 C-17.325 20.66 -18.15 21.32 -19 22 C-18.67 20.35 -18.34 18.7 -18 17 C-30.31492023 17.39860233 -30.31492023 17.39860233 -42 21 C-43.32 21 -44.64 21 -46 21 C-46 21.66 -46 22.32 -46 23 C-45.4225 23.268125 -44.845 23.53625 -44.25 23.8125 C-41.9674132 25.01719859 -40.0262058 26.40798115 -38 28 C-38.58007812 28.24234375 -39.16015625 28.4846875 -39.7578125 28.734375 C-44.51925397 30.77723767 -48.7638186 32.97415614 -53 36 C-53.99 36.66 -54.98 37.32 -56 38 C-56.495 36.515 -56.495 36.515 -57 35 C-55.8125 32.875 -55.8125 32.875 -54 31 C-52.9790625 30.7525 -52.9790625 30.7525 -51.9375 30.5 C-49.80754423 30.18969963 -49.80754423 30.18969963 -48.8125 28.0625 C-48.544375 27.381875 -48.27625 26.70125 -48 26 C-47.67 25.34 -47.34 24.68 -47 24 C-48.32 24 -49.64 24 -51 24 C-52.01111093 27.04913228 -52.01111093 27.04913228 -51 30 C-53.64 29.67 -56.28 29.34 -59 29 C-59 28.34 -59 27.68 -59 27 C-47.43976473 16.89115991 -30.84509072 14.26253376 -16 14 C-16.20625 13.05125 -16.4125 12.1025 -16.625 11.125 C-16.74875 10.09375 -16.8725 9.0625 -17 8 C-16.34 7.34 -15.68 6.68 -15 6 C-12.38419521 6.3269756 -10.35921863 6.82039068 -8 8 C-7.01 7.34 -6.02 6.68 -5 6 C-4.01 6 -3.02 6 -2 6 C-1.34 4.02 -0.68 2.04 0 0 Z " fill="#19AAEC" transform="translate(126,34)"/>
<path d="M0 0 C0.50333542 2.60356241 1.00279378 5.20776651 1.5 7.8125 C1.64308594 8.55048828 1.78617188 9.28847656 1.93359375 10.04882812 C2.50926281 13.07794391 3 15.909196 3 19 C-3.6 19 -10.2 19 -17 19 C-17 13.72 -17 8.44 -17 3 C-3.375 0 -3.375 0 0 0 Z " fill="#09B1F7" transform="translate(120,85)"/>
<path d="M0 0 C5.28 0.99 10.56 1.98 16 3 C16 8.28 16 13.56 16 19 C9.73 19 3.46 19 -3 19 C-3.30403782 11.80443836 -2.59917347 6.71453147 0 0 Z " fill="#0DADF2" transform="translate(83,85)"/>
<path d="M0 0 C6.6 0 13.2 0 20 0 C18.875 10.125 18.875 10.125 17.9375 14.0625 C17.76089844 14.81660156 17.58429688 15.57070312 17.40234375 16.34765625 C17.26957031 16.89292969 17.13679688 17.43820313 17 18 C11.2075276 17.36809392 5.67401601 16.3298475 0 15 C0 10.05 0 5.1 0 0 Z " fill="#10B2F1" transform="translate(103,108)"/>
<path d="M0 0 C6.27 0 12.54 0 19 0 C19 4.95 19 9.9 19 15 C7.88392857 18.21428571 7.88392857 18.21428571 3 18 C2.49095343 16.12743583 1.99317545 14.25180659 1.5 12.375 C1.08234375 10.80878906 1.08234375 10.80878906 0.65625 9.2109375 C0 6 0 6 0 0 Z " fill="#03B1FA" transform="translate(80,108)"/>
<path d="M0 0 C-0.66 1.98 -1.32 3.96 -2 6 C-2.66 6 -3.32 6 -4 6 C-4.66 8.31 -5.32 10.62 -6 13 C-7.33333333 13.33333333 -8.66666667 13.66666667 -10 14 C-10.639375 14.226875 -11.27875 14.45375 -11.9375 14.6875 C-14.73209761 15.11092388 -16.44433302 14.0988947 -19 13 C-19.96302356 14.55961362 -20.92021004 16.12283225 -21.875 17.6875 C-22.40867187 18.55761719 -22.94234375 19.42773438 -23.4921875 20.32421875 C-25.87718576 24.55666384 -27.23524627 28.54596217 -28.125 33.3125 C-28.29257812 34.19550781 -28.46015625 35.07851562 -28.6328125 35.98828125 C-28.75398438 36.65214844 -28.87515625 37.31601563 -29 38 C-29.66 37.34 -30.32 36.68 -31 36 C-31.33 39.3 -31.66 42.6 -32 46 C-32.33 46 -32.66 46 -33 46 C-33.81872794 32.1043675 -30.93620973 19.98317403 -22 9 C-21.34 9 -20.68 9 -20 9 C-19.67 8.01 -19.34 7.02 -19 6 C-18.67 6.66 -18.34 7.32 -18 8 C-18.33 8.99 -18.66 9.98 -19 11 C-17.35 11.33 -15.7 11.66 -14 12 C-14.33 10.68 -14.66 9.36 -15 8 C-10.78251752 4.19397922 -6.01776497 0 0 0 Z " fill="#CDF4FA" transform="translate(88,66)"/>
<path d="M0 0 C10.125 0 10.125 0 14 2 C13.53651679 7.23186128 11.8297859 10.20928546 8.6875 14.375 C7.51767578 15.96441406 7.51767578 15.96441406 6.32421875 17.5859375 C5.55722656 18.38257813 4.79023437 19.17921875 4 20 C2.68 20 1.36 20 0 20 C0 13.4 0 6.8 0 0 Z " fill="#12B4F0" transform="translate(103,128)"/>
<path d="M0 0 C4.96118703 0.99223741 5.89063363 1.36518992 8.79296875 5.1796875 C10.84401525 8.27285148 12.83796575 11.46107753 14 15 C13.67 15.99 13.34 16.98 13 18 C8.31840994 19.74412179 5.10309888 20 0 20 C0 13.4 0 6.8 0 0 Z " fill="#24ABE4" transform="translate(103,64)"/>
<path d="M0 0 C1.32 0.33 2.64 0.66 4 1 C4 2.32 4 3.64 4 5 C5.0725 4.7525 6.145 4.505 7.25 4.25 C11 4 11 4 13.5 5.6875 C15 8 15 8 14.75 10.25 C14.5025 10.8275 14.255 11.405 14 12 C14.99 12.33 15.98 12.66 17 13 C11.25 17 11.25 17 9 17 C9.350625 17.7425 9.70125 18.485 10.0625 19.25 C11.04509293 22.1322726 11.0326802 23.21176345 10 26 C9.67 25.01 9.34 24.02 9 23 C9.12568359 24.68029297 9.12568359 24.68029297 9.25390625 26.39453125 C9.35708445 27.86716556 9.45993179 29.33982308 9.5625 30.8125 C9.61857422 31.55048828 9.67464844 32.28847656 9.73242188 33.04882812 C9.95769724 36.36788516 10.06255812 38.81232564 9 42 C2.4 42 -4.2 42 -11 42 C-11 41.67 -11 41.34 -11 41 C-5.39 41 0.22 41 6 41 C6 40.34 6 39.68 6 39 C0.72 39 -4.56 39 -10 39 C-10 38.67 -10 38.34 -10 38 C-3.73 38 2.54 38 9 38 C7.9782534 32.95740497 7.9782534 32.95740497 6.93530273 27.91918945 C6.14946608 23.89120363 6.07666309 21.04309646 7 17 C5.93265701 11.26427832 3.32255364 6.69740342 0 2 C0 1.34 0 0.68 0 0 Z " fill="#D3F4FA" transform="translate(114,66)"/>
<path d="M0 0 C1.32 0 2.64 0 4 0 C4 6.6 4 13.2 4 20 C-6.625 19.125 -6.625 19.125 -10 18 C-9.45636781 13.41310339 -7.59997626 10.51996558 -5 6.75 C-4.278125 5.69296875 -3.55625 4.6359375 -2.8125 3.546875 C-1 1 -1 1 0 0 Z " fill="#15ABEE" transform="translate(95,64)"/>
<path d="M0 0 C0 6.6 0 13.2 0 20 C-5.78949581 18.55262605 -7.72521317 14.77770832 -11 10 C-14 4.67741935 -14 4.67741935 -14 2 C-8.89415681 -0.6352739 -6.53256034 0 0 0 Z " fill="#0FB2F1" transform="translate(99,128)"/>
<path d="M0 0 C0.66 0 1.32 0 2 0 C2 2.64 2 5.28 2 8 C8.93 8 15.86 8 23 8 C23 7.34 23 6.68 23 6 C23.66 6 24.32 6 25 6 C25 6.66 25 7.32 25 8 C30.94 8.33 36.88 8.66 43 9 C43 9.66 43 10.32 43 11 C34.585 11.495 34.585 11.495 26 12 C25.67 15.96 25.34 19.92 25 24 C24.67 24 24.34 24 24 24 C23.67 20.04 23.34 16.08 23 12 C15.74 12 8.48 12 1 12 C-0.26237731 9.47524538 -0.09856404 7.68799534 -0.0625 4.875 C-0.05347656 3.96492188 -0.04445313 3.05484375 -0.03515625 2.1171875 C-0.02355469 1.41851562 -0.01195313 0.71984375 0 0 Z " fill="#EAFCFB" transform="translate(77,96)"/>
<path d="M0 0 C0.66 0.66 1.32 1.32 2 2 C2.66 1.34 3.32 0.68 4 0 C4 4.95 4 9.9 4 15 C6.97 15.33 9.94 15.66 13 16 C13 16.33 13 16.66 13 17 C8.71 17 4.42 17 0 17 C0.33 17.66 0.66 18.32 1 19 C1.08400529 20.59447464 1.10727467 22.19240545 1.09765625 23.7890625 C1.09443359 24.73007813 1.09121094 25.67109375 1.08789062 26.640625 C1.07951172 27.62546875 1.07113281 28.6103125 1.0625 29.625 C1.05798828 30.61757812 1.05347656 31.61015625 1.04882812 32.6328125 C1.03702145 35.0886016 1.020554 37.54427104 1 40 C0.67 40 0.34 40 0 40 C0 33.4 0 26.8 0 20 C-5.96127767 20.58197507 -5.96127767 20.58197507 -11.8125 21.75 C-14 22 -14 22 -16.25 20.875 C-20.01975392 16.83597794 -19.08816647 11.20182165 -19 6 C-18.67 6 -18.34 6 -18 6 C-17.34 9.96 -16.68 13.92 -16 18 C-15.09636719 17.7834375 -14.19273438 17.566875 -13.26171875 17.34375 C-12.08222656 17.0653125 -10.90273437 16.786875 -9.6875 16.5 C-8.51574219 16.2215625 -7.34398438 15.943125 -6.13671875 15.65625 C-3 15 -3 15 0 15 C0 10.05 0 5.1 0 0 Z " fill="#B9EEFA" transform="translate(99,108)"/>
<path d="M0 0 C0.73046875 1.73046875 0.73046875 1.73046875 1 4 C-0.51171875 6.11328125 -0.51171875 6.11328125 -2.6875 8.3125 C-8.01847605 13.98711039 -11.07134916 19.82480545 -14 27 C-14.66 27 -15.32 27 -16 27 C-16 27.66 -16 28.32 -16 29 C-16.66 29 -17.32 29 -18 29 C-18 27.02 -18 25.04 -18 23 C-17.34 23 -16.68 23 -16 23 C-16.144375 21.865625 -16.28875 20.73125 -16.4375 19.5625 C-16.48413084 13.01086727 -11.6643844 8.88188517 -7.46875 4.34375 C-5.26614689 2.32860247 -2.68692301 1.25389741 0 0 Z " fill="#E8FAFA" transform="translate(63,61)"/>
<path d="M0 0 C1.02083333 0.875 2.04166667 1.75 3.0625 2.625 C3.71089844 3.17414063 4.35929687 3.72328125 5.02734375 4.2890625 C6.23463786 5.33618095 7.42075426 6.40921237 8.56640625 7.5234375 C18.85437723 17.26993632 32.3960238 19.92077016 46 21 C46 21.33 46 21.66 46 22 C29.6329815 22.50619645 16.2596281 18.91274448 3 9 C1.06013232 7.08112656 -0.41877517 5.23552477 -2 3 C-1.34 2.01 -0.68 1.02 0 0 Z " fill="#B3F4FB" transform="translate(58,143)"/>
<path d="M0 0 C1.84228293 0.20113532 3.67580379 0.48574321 5.5 0.8125 C6.5003125 0.98394531 7.500625 1.15539063 8.53125 1.33203125 C9.3459375 1.55246094 10.160625 1.77289063 11 2 C11.495 2.99 11.495 2.99 12 4 C10.35 6.31 8.7 8.62 7 11 C6.28199219 10.7834375 5.56398438 10.566875 4.82421875 10.34375 C-5.19808845 7.64783673 -14.6889204 7.70601991 -25 8 C-25 7.34 -25 6.68 -25 6 C-15.76 5.67 -6.52 5.34 3 5 C2.01 4.34 1.02 3.68 0 3 C-3.65670531 3.80648688 -3.65670531 3.80648688 -7 5 C-7 4.34 -7 3.68 -7 3 C-5.5459375 2.5359375 -5.5459375 2.5359375 -4.0625 2.0625 C-1.15934208 1.30476658 -1.15934208 1.30476658 0 0 Z " fill="#24A8E6" transform="translate(115,53)"/>
<path d="M0 0 C0.7425 0.556875 1.485 1.11375 2.25 1.6875 C13.46292239 9.18062236 26.04238893 11.61796309 39.26953125 9.46875 C45.1752724 8.10188664 49.88762645 6.22301811 55 3 C55.66 3 56.32 3 57 3 C57 4.98 57 6.96 57 9 C51.375 11.125 51.375 11.125 48 10 C46.80375 10.309375 45.6075 10.61875 44.375 10.9375 C32.28857357 13.79178637 20.46736013 12.48865239 9 8 C8.07703125 7.66742188 7.1540625 7.33484375 6.203125 6.9921875 C4 6 4 6 3 4 C2.01 3.67 1.02 3.34 0 3 C0 2.01 0 1.02 0 0 Z " fill="#2BB1E5" transform="translate(71,141)"/>
<path d="M0 0 C0.33 0 0.66 0 1 0 C1.33848652 1.89492006 1.67056911 3.79098466 2 5.6875 C2.185625 6.74324219 2.37125 7.79898438 2.5625 8.88671875 C2.95068074 11.64904062 3.08259976 14.21742043 3 17 C1.54119891 16.85892253 0.08296449 16.71197585 -1.375 16.5625 C-2.59316406 16.44068359 -2.59316406 16.44068359 -3.8359375 16.31640625 C-6 16 -6 16 -8 15 C-8.625 11.9375 -8.625 11.9375 -9 9 C-5.375 6 -5.375 6 -2 6 C-1.34 4.02 -0.68 2.04 0 0 Z " fill="#07AAF3" transform="translate(126,34)"/>
<path d="M0 0 C3 1 3 1 4.1875 2.875 C5 5 5 5 5 8 C3.73285156 7.98839844 2.46570313 7.97679687 1.16015625 7.96484375 C-0.53906101 7.95545581 -2.23827989 7.94635669 -3.9375 7.9375 C-4.76830078 7.92912109 -5.59910156 7.92074219 -6.45507812 7.91210938 C-12.05226441 7.89033044 -17.44733582 8.28840732 -23 9 C-22.34 8.67 -21.68 8.34 -21 8 C-21 7.34 -21 6.68 -21 6 C-15.06 5.505 -15.06 5.505 -9 5 C-8.67 3.68 -8.34 2.36 -8 1 C-6.865625 1.020625 -5.73125 1.04125 -4.5625 1.0625 C-1.18424326 1.41577477 -1.18424326 1.41577477 0 0 Z " fill="#01ACF9" transform="translate(105,40)"/>
<path d="M0 0 C1.82186775 3.30664983 2.80189098 6.62040847 3.8125 10.25 C5.84657932 16.99737507 7.99025634 22.99350423 14 27 C13.236875 26.835 12.47375 26.67 11.6875 26.5 C8.96403764 25.90854604 8.96403764 25.90854604 6 26 C5.67 24.68 5.34 23.36 5 22 C4.34 22 3.68 22 3 22 C0.07766071 16.25046736 -2.3772581 10.57686613 -2 4 C-1.0078125 1.73828125 -1.0078125 1.73828125 0 0 Z " fill="#D3F7FB" transform="translate(58,108)"/>
<path d="M0 0 C0.66 0 1.32 0 2 0 C2.22212255 2.74951693 2.42815588 5.49865612 2.625 8.25 C2.68945312 9.02730469 2.75390625 9.80460937 2.8203125 10.60546875 C3.31366056 17.82068413 3.31366056 17.82068413 1 21 C0.34 21.66 -0.32 22.32 -1 23 C-1.33 23 -1.66 23 -2 23 C-2 24.65 -2 26.3 -2 28 C-1.34 28.33 -0.68 28.66 0 29 C-0.33 30.32 -0.66 31.64 -1 33 C-1.84678051 31.13103445 -2.67686211 29.25449819 -3.5 27.375 C-4.19609375 25.80878906 -4.19609375 25.80878906 -4.90625 24.2109375 C-6.02767398 20.91875709 -6.207138 18.44884777 -6 15 C-4.68 15 -3.36 15 -2 15 C-1.67 15.66 -1.34 16.32 -1 17 C-0.34 17 0.32 17 1 17 C0.67 16.01 0.34 15.02 0 14 C-0.06970052 11.60509014 -0.08448003 9.20832309 -0.0625 6.8125 C-0.05347656 5.54019531 -0.04445313 4.26789063 -0.03515625 2.95703125 C-0.02355469 1.98121094 -0.01195312 1.00539063 0 0 Z " fill="#17A8EC" transform="translate(53,101)"/>
<path d="M0 0 C2.64 0 5.28 0 8 0 C7.67 2.31 7.34 4.62 7 7 C7.99 7.66 8.98 8.32 10 9 C9.67 10.32 9.34 11.64 9 13 C10.65 13 12.3 13 14 13 C14.33 14.32 14.66 15.64 15 17 C11.33643166 16.9715451 8.32157124 16.59739686 5 15 C2.01385697 10.46500036 0 5.46429736 0 0 Z " fill="#0DACF1" transform="translate(134,40)"/>
<path d="M0 0 C-0.33 0.99 -0.66 1.98 -1 3 C-3.97 2.67 -6.94 2.34 -10 2 C-10 9.59 -10 17.18 -10 25 C-12.64 25 -15.28 25 -18 25 C-18 24.67 -18 24.34 -18 24 C-16.35 23.67 -14.7 23.34 -13 23 C-13 16.07 -13 9.14 -13 2 C-15.31 1.67 -17.62 1.34 -20 1 C-20 0.67 -20 0.34 -20 0 C-13.26188501 -1.41030314 -6.80977041 -0.66561666 0 0 Z " fill="#EFFDFB" transform="translate(112,125)"/>
<path d="M0 0 C0.75410156 0.00322266 1.50820312 0.00644531 2.28515625 0.00976562 C3.06246094 0.01814453 3.83976562 0.02652344 4.640625 0.03515625 C5.43339844 0.03966797 6.22617188 0.04417969 7.04296875 0.04882812 C8.99222008 0.0605706 10.94143238 0.07850479 12.890625 0.09765625 C12.890625 0.42765625 12.890625 0.75765625 12.890625 1.09765625 C11.240625 1.42765625 9.590625 1.75765625 7.890625 2.09765625 C8.550625 2.75765625 9.210625 3.41765625 9.890625 4.09765625 C8.900625 4.09765625 7.910625 4.09765625 6.890625 4.09765625 C6.890625 10.69765625 6.890625 17.29765625 6.890625 24.09765625 C6.560625 24.09765625 6.230625 24.09765625 5.890625 24.09765625 C5.890625 17.49765625 5.890625 10.89765625 5.890625 4.09765625 C5.230625 4.09765625 4.570625 4.09765625 3.890625 4.09765625 C3.890625 10.69765625 3.890625 17.29765625 3.890625 24.09765625 C3.560625 24.09765625 3.230625 24.09765625 2.890625 24.09765625 C2.890625 17.49765625 2.890625 10.89765625 2.890625 4.09765625 C1.240625 4.42765625 -0.409375 4.75765625 -2.109375 5.09765625 C-2.109375 4.10765625 -2.109375 3.11765625 -2.109375 2.09765625 C-4.749375 2.42765625 -7.389375 2.75765625 -10.109375 3.09765625 C-7.08726821 0.07554946 -4.14583877 -0.03140787 0 0 Z " fill="#C5F4FD" transform="translate(96.109375,59.90234375)"/>
<path d="M0 0 C1.32 0 2.64 0 4 0 C3.67 0.969375 3.34 1.93875 3 2.9375 C1.94826637 5.62149574 1.94826637 5.62149574 2 7 C0.02 7.66 -1.96 8.32 -4 9 C-3.67 9.66 -3.34 10.32 -3 11 C-3.99 11.495 -3.99 11.495 -5 12 C-5.33 12.99 -5.66 13.98 -6 15 C-8.375 14.75 -8.375 14.75 -11 14 C-12.1640625 11.953125 -12.1640625 11.953125 -13 10 C-10.79124879 7.80397934 -8.59005725 5.73919133 -6 4 C-3.0625 4.125 -3.0625 4.125 -1 5 C-1 4.01 -1 3.02 -1 2 C-0.67 1.34 -0.34 0.68 0 0 Z " fill="#04AAF9" transform="translate(75,58)"/>
<path d="M0 0 C0.33 0 0.66 0 1 0 C1.33 5.28 1.66 10.56 2 16 C2 14.68 2 13.36 2 12 C2 10.68 2 9.36 2 8 C4.97 8.495 4.97 8.495 8 9 C8.33 8.34 8.66 7.68 9 7 C11.0625 6.375 11.0625 6.375 13 6 C11.66300057 9.72638951 10.01835555 12.66142271 7.625 15.8125 C7.03976563 16.60269531 6.45453125 17.39289063 5.8515625 18.20703125 C4 20 4 20 0 20 C0 13.4 0 6.8 0 0 Z " fill="#26B5E9" transform="translate(103,128)"/>
<path d="M0 0 C0.33 0 0.66 0 1 0 C1.03738281 1.24394531 1.07476562 2.48789063 1.11328125 3.76953125 C1.57752519 16.42113264 3.03571552 26.68842598 9 38 C9 38.66 9 39.32 9 40 C7.68 39.67 6.36 39.34 5 39 C5 37.68 5 36.36 5 35 C4.01 35 3.02 35 2 35 C-0.60838582 23.60383814 -1.68422012 12.69753238 -1 1 C-0.67 0.67 -0.34 0.34 0 0 Z " fill="#22ADED" transform="translate(39,96)"/>
<path d="M0 0 C-0.66 1.98 -1.32 3.96 -2 6 C-2.66 6 -3.32 6 -4 6 C-4.66 8.31 -5.32 10.62 -6 13 C-9.99904969 13 -11.80200422 11.27413033 -15 9 C-11.23001737 4.75876954 -6.01786385 0 0 0 Z " fill="#23ABE5" transform="translate(88,66)"/>
<path d="M0 0 C0 0.66 0 1.32 0 2 C0.66 2 1.32 2 2 2 C1.8125 4.3125 1.8125 4.3125 1 7 C-1.4375 8.875 -1.4375 8.875 -4 10 C-4.66 9.67 -5.32 9.34 -6 9 C-6 10.65 -6 12.3 -6 14 C-7.98 14 -9.96 14 -12 14 C-12 12.68 -12 11.36 -12 10 C-11.38125 9.95875 -10.7625 9.9175 -10.125 9.875 C-9.42375 9.58625 -8.7225 9.2975 -8 9 C-7.26919734 7.02253397 -6.60578253 5.01927511 -6 3 C-3.90105857 0.2622503 -3.56396944 0 0 0 Z " fill="#F9FAF9" transform="translate(132,56)"/>
<path d="M0 0 C2.31 4.29 4.62 8.58 7 13 C2.51116463 12.10223293 0.42697528 11.28090451 -3.3125 8.9375 C-4.19550781 8.38964844 -5.07851562 7.84179688 -5.98828125 7.27734375 C-6.98408203 6.64505859 -6.98408203 6.64505859 -8 6 C-6.24081631 1.94034532 -4.71412298 0 0 0 Z " fill="#27B1E7" transform="translate(82,133)"/>
<path d="M0 0 C6.27 0 12.54 0 19 0 C19 4.95 19 9.9 19 15 C18.67 15 18.34 15 18 15 C18 10.38 18 5.76 18 1 C12.72 1 7.44 1 2 1 C2.309375 2.7325 2.61875 4.465 2.9375 6.25 C3.19853516 7.71179688 3.19853516 7.71179688 3.46484375 9.203125 C3.90379729 11.49721795 4.40348592 13.74291971 5 16 C5.66 16 6.32 16 7 16 C6.67 14.68 6.34 13.36 6 12 C6.53625 12.309375 7.0725 12.61875 7.625 12.9375 C10.3984957 14.17827439 13.00042837 14.5909675 16 15 C16 15.33 16 15.66 16 16 C11.47580359 17.22690072 7.70776045 18.13191623 3 18 C2.49095343 16.12743583 1.99317545 14.25180659 1.5 12.375 C1.08234375 10.80878906 1.08234375 10.80878906 0.65625 9.2109375 C0 6 0 6 0 0 Z " fill="#20AADF" transform="translate(80,108)"/>
<path d="M0 0 C1.32 0 2.64 0 4 0 C4 0.66 4 1.32 4 2 C4.66 2 5.32 2 6 2 C6.33 6.62 6.66 11.24 7 16 C5.68 16 4.36 16 3 16 C2.67 15.34 2.34 14.68 2 14 C1.34 14 0.68 14 0 14 C0 9.38 0 4.76 0 0 Z " fill="#02ADFB" transform="translate(47,102)"/>
<path d="M0 0 C1.32 0 2.64 0 4 0 C4 6.6 4 13.2 4 20 C-6.625 19.125 -6.625 19.125 -10 18 C-9.625 15.5625 -9.625 15.5625 -9 13 C-8.34 12.67 -7.68 12.34 -7 12 C-7 12.66 -7 13.32 -7 14 C-5.68 13.67 -4.36 13.34 -3 13 C-3 13.99 -3 14.98 -3 16 C-1.02 16 0.96 16 3 16 C3 11.38 3 6.76 3 2 C1.68 1.67 0.36 1.34 -1 1 C-0.67 0.67 -0.34 0.34 0 0 Z " fill="#1EAAE7" transform="translate(95,64)"/>
<path d="M0 0 C1.98 0 3.96 0 6 0 C9 5.625 9 5.625 9 9 C5.17010894 10.80230168 2.21878192 11.19622241 -2 11 C-2 10.34 -2 9.68 -2 9 C-1.34 9 -0.68 9 0 9 C-0.185625 8.071875 -0.37125 7.14375 -0.5625 6.1875 C-1 3 -1 3 0 0 Z " fill="#03AEF9" transform="translate(106,72)"/>
<path d="M0 0 C3.465 1.98 3.465 1.98 7 4 C6.8359375 5.79296875 6.8359375 5.79296875 6 8 C3.6015625 9.73828125 3.6015625 9.73828125 0.625 11.3125 C-0.84066406 12.11107422 -0.84066406 12.11107422 -2.3359375 12.92578125 C-5 14 -5 14 -8 13 C-7.59007813 12.39671875 -7.18015625 11.7934375 -6.7578125 11.171875 C-6.21898438 10.37265625 -5.68015625 9.5734375 -5.125 8.75 C-4.59132813 7.96109375 -4.05765625 7.1721875 -3.5078125 6.359375 C-2.18177985 4.28444308 -1.05071825 2.22385028 0 0 Z " fill="#32B4E2" transform="translate(121,132)"/>
<path d="M0 0 C1 4 1 4 1 4 Z M-2 2 C0 4 0 4 1.4375 7.4375 C2.75661121 10.44507356 3.51995882 11.99234762 6 14 C4.25 18.875 4.25 18.875 2 20 C1.34 18.68 0.68 17.36 0 16 C-0.66 16 -1.32 16 -2 16 C-2.53154742 14.39935157 -3.04988353 12.79431126 -3.5625 11.1875 C-3.85253906 10.29417969 -4.14257812 9.40085937 -4.44140625 8.48046875 C-5 6 -5 6 -4 3 C-3.67 3.33 -3.34 3.66 -3 4 C-2.67 3.34 -2.34 2.68 -2 2 Z " fill="#04AFFA" transform="translate(55,118)"/>
<path d="M0 0 C0 0.99 0 1.98 0 3 C-0.68707031 3.13277344 -1.37414062 3.26554687 -2.08203125 3.40234375 C-3.43361328 3.66724609 -3.43361328 3.66724609 -4.8125 3.9375 C-6.15248047 4.19853516 -6.15248047 4.19853516 -7.51953125 4.46484375 C-10.11397171 4.97741153 -10.11397171 4.97741153 -13 6 C-13.12375 7.2375 -13.2475 8.475 -13.375 9.75 C-13.7206728 13.20672799 -14.34445298 14.68890596 -16 18 C-10.72 18 -5.44 18 0 18 C0 18.33 0 18.66 0 19 C-5.61 19 -11.22 19 -17 19 C-17 13.72 -17 8.44 -17 3 C-3.375 0 -3.375 0 0 0 Z " fill="#22ACE6" transform="translate(120,85)"/>
<path d="M0 0 C1.32 0.33 2.64 0.66 4 1 C4 2.32 4 3.64 4 5 C5.0725 4.7525 6.145 4.505 7.25 4.25 C11 4 11 4 13.4375 5.9375 C13.953125 6.618125 14.46875 7.29875 15 8 C14.67 8.66 14.34 9.32 14 10 C13.34 10 12.68 10 12 10 C12 10.66 12 11.32 12 12 C10.35 12.33 8.7 12.66 7 13 C5.82786955 11.21190303 4.66244474 9.41940875 3.5 7.625 C2.8503125 6.62726563 2.200625 5.62953125 1.53125 4.6015625 C0 2 0 2 0 0 Z " fill="#16AEEC" transform="translate(114,66)"/>
<path d="M0 0 C2.26171875 -0.02734375 2.26171875 -0.02734375 5 1 C6.71270696 3.63439211 7.73087332 6.49824516 8.8125 9.4375 C9.12380859 10.22705078 9.43511719 11.01660156 9.75585938 11.83007812 C12 17.61552198 12 17.61552198 12 20 C11.34 20 10.68 20 10 20 C10 19.34 10 18.68 10 18 C9.34 18 8.68 18 8 18 C6.55141475 15.82712213 5.25831941 13.71328862 4 11.4375 C2.23162582 8.06123441 2.23162582 8.06123441 0 6 C-0.125 2.875 -0.125 2.875 0 0 Z " fill="#DAF7F8" transform="translate(127,34)"/>
<path d="M0 0 C4.05269748 4.05269748 3.15915188 10.98899072 3.1875 16.4375 C3.09415503 29.90584497 3.09415503 29.90584497 -1 34 C-1 32.68 -1 31.36 -1 30 C-1.66 30 -2.32 30 -3 30 C-2.34 26.04 -1.68 22.08 -1 18 C-0.34 19.32 0.32 20.64 1 22 C1.33 19.36 1.66 16.72 2 14 C1.01 14 0.02 14 -1 14 C-1 12.35 -1 10.7 -1 9 C-0.67 9 -0.34 9 0 9 C0 6.03 0 3.06 0 0 Z " fill="#C6F8FC" transform="translate(144,90)"/>
<path d="M0 0 C0.66 0 1.32 0 2 0 C3.22716023 3.6814807 3.18406814 7.10410762 3.1875 10.9375 C3.19974609 11.65357422 3.21199219 12.36964844 3.22460938 13.10742188 C3.23515333 16.89973108 3.12309215 19.78599094 1 23 C-1.51164578 19.19778524 -1.26250978 15.32359829 -1.1875 10.9375 C-1.18685547 10.21755859 -1.18621094 9.49761719 -1.18554688 8.75585938 C-1.15902862 5.58250863 -1.00983535 3.02950606 0 0 Z " fill="#F8FCFB" transform="translate(42,93)"/>
<path d="M0 0 C1.36722938 3.69151932 0.5123038 5.47129113 -1 9 C-1.33 10.98 -1.66 12.96 -2 15 C2.62 15 7.24 15 12 15 C12 11.37 12 7.74 12 4 C12.66 4 13.32 4 14 4 C13.67 8.29 13.34 12.58 13 17 C7.39 17 1.78 17 -4 17 C-3.56095303 10.58991429 -2.8720604 5.7441208 0 0 Z " fill="#1DA8E8" transform="translate(63,87)"/>
<path d="M0 0 C0 0.33 0 0.66 0 1 C-0.93199219 1.03738281 -1.86398438 1.07476562 -2.82421875 1.11328125 C-10.61472509 1.51501616 -17.65089746 2.39536097 -25.1953125 4.57421875 C-28.46032416 5.06988208 -30.09219503 4.47520509 -33 3 C-23.9419017 -3.0387322 -10.29325688 -1.91502454 0 0 Z " fill="#C4F6FC" transform="translate(111,48)"/>
<path d="M0 0 C0.90878906 0.29003906 0.90878906 0.29003906 1.8359375 0.5859375 C11.86879962 3.70384234 21.51505045 5.31541566 32 6 C32 6.99 32 7.98 32 9 C27.71 9 23.42 9 19 9 C18.67 8.34 18.34 7.68 18 7 C15.97304618 6.60806489 15.97304618 6.60806489 13.625 6.5 C10.10348536 6.27058537 9.07060704 6.04707136 6 4 C4.01200182 3.29835358 2.01301483 2.62627128 0 2 C0 1.34 0 0.68 0 0 Z " fill="#0AB6F1" transform="translate(72,159)"/>
<path d="M0 0 C1.77388086 1.09926403 3.54399684 2.20460502 5.3125 3.3125 C6.79169922 4.23482422 6.79169922 4.23482422 8.30078125 5.17578125 C10.50172035 6.66324661 12.23328988 8.0403386 14 10 C11.6875 10.625 11.6875 10.625 9 11 C8.01 10.34 7.02 9.68 6 9 C3.94290404 8.75944532 3.94290404 8.75944532 1.8125 8.875 C0.554375 8.91625 -0.70375 8.9575 -2 9 C-2 6.66666667 -2 4.33333333 -2 2 C-1.34 2 -0.68 2 0 2 C0 1.34 0 0.68 0 0 Z " fill="#0EB5F4" transform="translate(58,149)"/>
<path d="M0 0 C0.66 0.33 1.32 0.66 2 1 C0.68 2.65 -0.64 4.3 -2 6 C-0.27773504 9.24849977 -0.27773504 9.24849977 3 10 C3 10.66 3 11.32 3 12 C2.34 12 1.68 12 1 12 C0.67 12.66 0.34 13.32 0 14 C0 13.01 0 12.02 0 11 C-0.928125 10.7834375 -0.928125 10.7834375 -1.875 10.5625 C-4 10 -4 10 -6 9 C-6 9.99 -6 10.98 -6 12 C-6.99 12 -7.98 12 -9 12 C-10.73662334 15.22515763 -11.8905928 18.51329166 -13 22 C-13.66 22 -14.32 22 -15 22 C-13.41209727 12.86955931 -6.5725883 6.16180153 0 0 Z " fill="#20A8E8" transform="translate(65,63)"/>
<path d="M0 0 C0.66 0 1.32 0 2 0 C2.02505615 0.58491211 2.0501123 1.16982422 2.07592773 1.77246094 C2.19222962 4.43184471 2.31480067 7.09090403 2.4375 9.75 C2.47681641 10.67039062 2.51613281 11.59078125 2.55664062 12.5390625 C2.61948242 13.87324219 2.61948242 13.87324219 2.68359375 15.234375 C2.72025146 16.05131836 2.75690918 16.86826172 2.79467773 17.70996094 C2.99134275 19.9034423 3.40300594 21.88396413 4 24 C3.01 24.33 2.02 24.66 1 25 C1 24.34 1 23.68 1 23 C-1.97 22.67 -4.94 22.34 -8 22 C-8 21.67 -8 21.34 -8 21 C-4.535 20.505 -4.535 20.505 -1 20 C-0.67 13.4 -0.34 6.8 0 0 Z " fill="#F1FDFA" transform="translate(100,64)"/>
<path d="M0 0 C0.66 0.66 1.32 1.32 2 2 C2.66 1.34 3.32 0.68 4 0 C4 4.95 4 9.9 4 15 C6.97 15.33 9.94 15.66 13 16 C13 16.33 13 16.66 13 17 C11.58344207 17.0272415 10.16672955 17.04650467 8.75 17.0625 C7.56664063 17.07990234 7.56664063 17.07990234 6.359375 17.09765625 C4 17 4 17 0 16 C0 10.72 0 5.44 0 0 Z " fill="#C3F6FC" transform="translate(99,108)"/>
<path d="M0 0 C0.99 0.495 0.99 0.495 2 1 C3.10514766 4.31544299 3.32107631 7.20410111 3.5625 10.6875 C3.64628906 11.86699219 3.73007813 13.04648438 3.81640625 14.26171875 C3.87699219 15.16535156 3.93757813 16.06898437 4 17 C7.3 17 10.6 17 14 17 C14.33 17.66 14.66 18.32 15 19 C14.14535156 19.04898438 13.29070312 19.09796875 12.41015625 19.1484375 C11.30542969 19.22320312 10.20070312 19.29796875 9.0625 19.375 C7.40927734 19.47941406 7.40927734 19.47941406 5.72265625 19.5859375 C4.82417969 19.72257812 3.92570312 19.85921875 3 20 C2.67 20.66 2.34 21.32 2 22 C0.90684754 17.4161086 0.67717375 12.87488993 0.4375 8.1875 C0.39431641 7.39923828 0.35113281 6.61097656 0.30664062 5.79882812 C0.20121679 3.86605785 0.10016906 1.93304974 0 0 Z " fill="#F4FDFB" transform="translate(122,88)"/>
<path d="M0 0 C-0.71730736 3.23165844 -1.81315074 6.18707922 -3.0625 9.25 C-3.42472656 10.14203125 -3.78695312 11.0340625 -4.16015625 11.953125 C-4.43730469 12.62859375 -4.71445312 13.3040625 -5 14 C-5.66 14 -6.32 14 -7 14 C-7 14.66 -7 15.32 -7 16 C-7.66 16 -8.32 16 -9 16 C-9 14.02 -9 12.04 -9 10 C-8.34 10 -7.68 10 -7 10 C-7.0825 9.0925 -7.165 8.185 -7.25 7.25 C-7 4 -7 4 -5.1875 1.625 C-3 0 -3 0 0 0 Z " fill="#EBFAFB" transform="translate(54,74)"/>
<path d="M0 0 C1.32 0 2.64 0 4 0 C4.66 2.31 5.32 4.62 6 7 C5.01 7.33 4.02 7.66 3 8 C2.33820153 9.98045559 2.33820153 9.98045559 2 12 C1 13 1 13 -1.5625 13.0625 C-2.366875 13.041875 -3.17125 13.02125 -4 13 C-2.125 9.125 -2.125 9.125 -1 8 C-0.76924918 6.65252916 -0.58846937 5.29622435 -0.4375 3.9375 C-0.2209375 1.9884375 -0.2209375 1.9884375 0 0 Z " fill="#E6FBFA" transform="translate(112,43)"/>
<path d="M0 0 C1.65 0 3.3 0 5 0 C4.67 0.66 4.34 1.32 4 2 C3.95041513 3.92774958 3.96370154 5.85727365 4.0078125 7.78515625 C4.02457031 8.95626953 4.04132813 10.12738281 4.05859375 11.33398438 C4.10238046 13.79247948 4.154279 16.25084537 4.21484375 18.70898438 C4.30070038 25.85459738 3.72455967 31.37404206 1 38 C0.34 38 -0.32 38 -1 38 C-0.7834375 37.30777344 -0.566875 36.61554688 -0.34375 35.90234375 C3.08420599 23.85688729 2.82976098 12.15281278 0 0 Z " fill="#3FB7E7" transform="translate(144,88)"/>
<path d="M0 0 C1.32 0 2.64 0 4 0 C3.88512252 1.58409994 3.75765492 3.16728963 3.625 4.75 C3.55539063 5.63171875 3.48578125 6.5134375 3.4140625 7.421875 C2.98751237 10.07775315 2.50094628 11.77278939 1 14 C-0.98 14.99 -0.98 14.99 -3 16 C-2.01 10.72 -1.02 5.44 0 0 Z " fill="#D2F5FC" transform="translate(123,108)"/>
<path d="M0 0 C0.33 0.99 0.66 1.98 1 3 C6.61 3.33 12.22 3.66 18 4 C18 4.66 18 5.32 18 6 C16.30230469 6.03867188 16.30230469 6.03867188 14.5703125 6.078125 C13.08850257 6.13439626 11.60673323 6.19174382 10.125 6.25 C9.37863281 6.26417969 8.63226563 6.27835937 7.86328125 6.29296875 C5.42861619 6.35986341 5.42861619 6.35986341 2 7 C0.39662601 8.90628782 0.39662601 8.90628782 0 11 C-0.33 11 -0.66 11 -1 11 C-1.02688151 9.35425434 -1.04634123 7.70838587 -1.0625 6.0625 C-1.07410156 5.14597656 -1.08570313 4.22945313 -1.09765625 3.28515625 C-1 1 -1 1 0 0 Z " fill="#F2FDF9" transform="translate(57,101)"/>
<path d="M0 0 C0.33 0 0.66 0 1 0 C1.02578125 0.84304687 1.0515625 1.68609375 1.078125 2.5546875 C1.13484375 3.65039062 1.1915625 4.74609375 1.25 5.875 C1.29640625 6.96554688 1.3428125 8.05609375 1.390625 9.1796875 C1.68846128 12.1332065 1.68846128 12.1332065 4.046875 13.3828125 C4.69140625 13.58648437 5.3359375 13.79015625 6 14 C6 16.31 6 18.62 6 21 C5.01 20.67 4.02 20.34 3 20 C3 19.34 3 18.68 3 18 C1.02 18 -0.96 18 -3 18 C-2.67 17.34 -2.34 16.68 -2 16 C-1.01 16 -0.02 16 1 16 C0.76603516 14.39318359 0.76603516 14.39318359 0.52734375 12.75390625 C0.33043783 11.35681186 0.13383907 9.95967416 -0.0625 8.5625 C-0.16626953 7.85544922 -0.27003906 7.14839844 -0.37695312 6.41992188 C-0.62689163 4.61864093 -0.81801314 2.80940959 -1 1 C-0.67 0.67 -0.34 0.34 0 0 Z " fill="#F4FDFA" transform="translate(79,115)"/>
<path d="M0 0 C0.33 1.32 0.66 2.64 1 4 C1.66 4 2.32 4 3 4 C1.72545246 8.98232221 -0.04322181 11.70268484 -4 15 C-6.3125 15.8125 -6.3125 15.8125 -8 16 C-6.30506881 12.4682364 -4.2717622 9.26748441 -2.12109375 6 C-0.99566877 3.99227321 -0.44649157 2.24750812 0 0 Z " fill="#CFF7FA" transform="translate(117,130)"/>
<path d="M0 0 C0.33 0.99 0.66 1.98 1 3 C0.01 3 -0.98 3 -2 3 C-2 3.66 -2 4.32 -2 5 C-1.34 5.33 -0.68 5.66 0 6 C-4.53701494 7.45184478 -8.18061476 8.23509196 -13 8 C-13.33 6.68 -13.66 5.36 -14 4 C-13.07316406 3.79503906 -12.14632812 3.59007813 -11.19140625 3.37890625 C-9.99386719 3.10949219 -8.79632813 2.84007813 -7.5625 2.5625 C-6.36753906 2.29566406 -5.17257813 2.02882813 -3.94140625 1.75390625 C-1.1295314 1.29933252 -1.1295314 1.29933252 0 0 Z " fill="#C6F4FA" transform="translate(117,80)"/>
<path d="M0 0 C2.63861452 3.18453477 5.1832328 6.27084628 7 10 C6.6875 12.3125 6.6875 12.3125 6 14 C2.52867905 12.59070303 1.11906726 11.09394917 -0.75 7.875 C-1.39195313 6.78832031 -1.39195313 6.78832031 -2.046875 5.6796875 C-2.36140625 5.12539062 -2.6759375 4.57109375 -3 4 C-2.01 4 -1.02 4 0 4 C0 2.68 0 1.36 0 0 Z " fill="#D8F7FB" transform="translate(51,132)"/>
<path d="M0 0 C2.69082872 0.17635452 5.32851446 0.61835921 8 1 C8.33 1.99 8.66 2.98 9 4 C7.5625 6.1875 7.5625 6.1875 6 8 C3.69 7.67 1.38 7.34 -1 7 C0.32 6.34 1.64 5.68 3 5 C2.01 4.34 1.02 3.68 0 3 C-3.65670531 3.80648688 -3.65670531 3.80648688 -7 5 C-7 4.34 -7 3.68 -7 3 C-5.5459375 2.5359375 -5.5459375 2.5359375 -4.0625 2.0625 C-1.15934208 1.30476658 -1.15934208 1.30476658 0 0 Z " fill="#19B1F0" transform="translate(115,53)"/>
<path d="M0 0 C2.5 0.125 2.5 0.125 5 1 C6.375 2.8125 6.375 2.8125 7 5 C6.625 7.25 6.625 7.25 6 9 C5.67 7.02 5.34 5.04 5 3 C3.68 3 2.36 3 1 3 C1 5.64 1 8.28 1 11 C-4.28 10.67 -9.56 10.34 -15 10 C-15 9.67 -15 9.34 -15 9 C-10.38 8.67 -5.76 8.34 -1 8 C-1.33 6.02 -1.66 4.04 -2 2 C-1.34 1.34 -0.68 0.68 0 0 Z " fill="#4EBDEC" transform="translate(111,40)"/>
<path d="M0 0 C0.33 0 0.66 0 1 0 C1 6.6 1 13.2 1 20 C-3.59037956 18.85240511 -4.33669182 17.70960782 -7 14 C-4 13 -4 13 -2 13 C-1.34 8.71 -0.68 4.42 0 0 Z " fill="#18AFE6" transform="translate(98,128)"/>
<path d="M0 0 C1.74216797 0.33257812 1.74216797 0.33257812 3.51953125 0.671875 C4.39996094 0.86265625 5.28039062 1.0534375 6.1875 1.25 C6.1875 1.58 6.1875 1.91 6.1875 2.25 C5.22328125 2.19199219 4.2590625 2.13398437 3.265625 2.07421875 C2.00234375 2.02910156 0.7390625 1.98398437 -0.5625 1.9375 C-2.44195312 1.85048828 -2.44195312 1.85048828 -4.359375 1.76171875 C-7.96021417 1.91761827 -7.96021417 1.91761827 -10.203125 4.64453125 C-11.78008875 7.11054544 -11.78008875 7.11054544 -12.8125 9.25 C-11.8225 9.58 -10.8325 9.91 -9.8125 10.25 C-9.4825 11.57 -9.1525 12.89 -8.8125 14.25 C-11.4525 12.27 -14.0925 10.29 -16.8125 8.25 C-15.16947047 6.56002677 -13.49778688 4.89783606 -11.8125 3.25 C-11.07 2.5178125 -10.3275 1.785625 -9.5625 1.03125 C-5.9299614 -1.32164432 -4.17718995 -0.84387676 0 0 Z " fill="#2CADE0" transform="translate(143.8125,59.75)"/>
<path d="M0 0 C0.92232422 0.00902344 1.84464844 0.01804688 2.79492188 0.02734375 C5.05105809 0.0507234 7.30663684 0.08349084 9.5625 0.125 C8.41076645 2.59300047 7.51466435 4.17283565 5.5625 6.125 C5.8925 4.475 6.2225 2.825 6.5625 1.125 C-2.86407762 1.3670174 -11.02710128 2.16840493 -19.9609375 5.3828125 C-22.4375 6.125 -22.4375 6.125 -24.4375 5.125 C-15.99306853 1.3336226 -9.25983131 -0.17333018 0 0 Z " fill="#33ADE1" transform="translate(101.4375,49.875)"/>
<path d="M0 0 C0.33 0 0.66 0 1 0 C0.67 2.64 0.34 5.28 0 8 C-6.6 8 -13.2 8 -20 8 C-20 7.67 -20 7.34 -20 7 C-14.39 7 -8.78 7 -3 7 C-3 6.34 -3 5.68 -3 5 C-8.28 5 -13.56 5 -19 5 C-19 4.67 -19 4.34 -19 4 C-12.73 4 -6.46 4 0 4 C0 2.68 0 1.36 0 0 Z " fill="#D4FAFD" transform="translate(123,100)"/>
<path d="M0 0 C0.33 0.99 0.66 1.98 1 3 C-2.75 6.875 -2.75 6.875 -5 8 C-5 8.66 -5 9.32 -5 10 C-4.34 10.66 -3.68 11.32 -3 12 C-4.32 12 -5.64 12 -7 12 C-7.33 10.68 -7.66 9.36 -8 8 C-9.32 8 -10.64 8 -12 8 C-12 7.34 -12 6.68 -12 6 C-11.01 5.67 -10.02 5.34 -9 5 C-10.32 4.67 -11.64 4.34 -13 4 C-13 3.34 -13 2.68 -13 2 C-8.05 2.99 -8.05 2.99 -3 4 C-2.01 2.68 -1.02 1.36 0 0 Z " fill="#C3F2FA" transform="translate(125,59)"/>
<path d="M0 0 C1.90318884 2.85478326 2.4619099 4.41941308 3.125 7.6875 C3.29257813 8.49574219 3.46015625 9.30398437 3.6328125 10.13671875 C3.75398438 10.75160156 3.87515625 11.36648437 4 12 C2.76055724 12.86941494 1.50792941 13.72005457 0.25 14.5625 C-0.44609375 15.03816406 -1.1421875 15.51382813 -1.859375 16.00390625 C-4 17 -4 17 -6.265625 16.65234375 C-6.83796875 16.43707031 -7.4103125 16.22179687 -8 16 C-7.01 15.67 -6.02 15.34 -5 15 C-4.26676204 12.98491642 -4.26676204 12.98491642 -4 11 C-2.35 11 -0.7 11 1 11 C0.67 7.37 0.34 3.74 0 0 Z " fill="#22AFE6" transform="translate(76,117)"/>
<path d="M0 0 C4.62 0 9.24 0 14 0 C14 3.63 14 7.26 14 11 C13.34 11 12.68 11 12 11 C12 8.03 12 5.06 12 2 C8.04 2 4.08 2 0 2 C0 1.34 0 0.68 0 0 Z " fill="#01AEFD" transform="translate(61,109)"/>
<path d="M0 0 C0 1.98 0 3.96 0 6 C-2.8125 7.125 -2.8125 7.125 -6 8 C-6.99 7.34 -7.98 6.68 -9 6 C-9 5.34 -9 4.68 -9 4 C-2.25 0 -2.25 0 0 0 Z " fill="#01B9F9" transform="translate(128,144)"/>
<path d="M0 0 C2.62400522 2.37409996 4.44568209 4.81364829 6 8 C5.6875 10.3125 5.6875 10.3125 5 12 C4.01 11.67 3.02 11.34 2 11 C2 10.01 2 9.02 2 8 C1.01 8 0.02 8 -1 8 C-1.625 5.6875 -1.625 5.6875 -2 3 C-1.34 2.01 -0.68 1.02 0 0 Z " fill="#03B1F9" transform="translate(61,136)"/>
<path d="M0 0 C2 0.66666667 4 1.33333333 6 2 C6 2.99 6 3.98 6 5 C5.01 5.33 4.02 5.66 3 6 C2.01 7.485 2.01 7.485 1 9 C1 8.01 1 7.02 1 6 C0.01 6.99 -0.98 7.98 -2 9 C-2 8.34 -2 7.68 -2 7 C-2.66 7 -3.32 7 -4 7 C-3.67 5.68 -3.34 4.36 -3 3 C-2.01 3 -1.02 3 0 3 C0 2.01 0 1.02 0 0 Z " fill="#04AAFA" transform="translate(59,72)"/>
<path d="M0 0 C2.75 0.0625 2.75 0.0625 6 1 C7.67326401 3.19788473 8.73865503 5.52080472 10 8 C10.99 8.66 11.98 9.32 13 10 C12.236875 9.835 11.47375 9.67 10.6875 9.5 C7.96403764 8.90854604 7.96403764 8.90854604 5 9 C4.67 7.68 4.34 6.36 4 5 C3.34 5 2.68 5 2 5 C1.34 3.35 0.68 1.7 0 0 Z " fill="#C6F1F8" transform="translate(59,125)"/>
<path d="M0 0 C0.33 0 0.66 0 1 0 C1 1.98 1 3.96 1 6 C0.34 6 -0.32 6 -1 6 C-0.90460937 6.61488281 -0.80921875 7.22976562 -0.7109375 7.86328125 C-0.60007812 8.67152344 -0.48921875 9.47976562 -0.375 10.3125 C-0.25898437 11.11300781 -0.14296875 11.91351563 -0.0234375 12.73828125 C0 15 0 15 -2 18 C-2 17.01 -2 16.02 -2 15 C-2.66 15 -3.32 15 -4 15 C-4.33 15.99 -4.66 16.98 -5 18 C-4.51030705 11.38914524 -2.66557258 6.05022986 0 0 Z " fill="#DAF7FC" transform="translate(46,78)"/>
<path d="M0 0 C0.66 0.66 1.32 1.32 2 2 C1.625 5.625 1.625 5.625 1 9 C-0.65 9 -2.3 9 -4 9 C-4.33 8.01 -4.66 7.02 -5 6 C-6.65 5.67 -8.3 5.34 -10 5 C-7 4 -7 4 -4 4 C-1.81222534 2.0624994 -1.81222534 2.0624994 0 0 Z " fill="#F6FBF7" transform="translate(85,75)"/>
<path d="M0 0 C1.65 0.33 3.3 0.66 5 1 C5 3.31 5 5.62 5 8 C3.68 8 2.36 8 1 8 C1 7.01 1 6.02 1 5 C-0.32 5.33 -1.64 5.66 -3 6 C-3 5.34 -3 4.68 -3 4 C-2.34 4 -1.68 4 -1 4 C-0.67 2.68 -0.34 1.36 0 0 Z " fill="#04AEFA" transform="translate(91,72)"/>
<path d="M0 0 C2.31 0.33 4.62 0.66 7 1 C6.8125 2.875 6.8125 2.875 6 5 C3.625 6.3125 3.625 6.3125 1 7 C0.01 6.67 -0.98 6.34 -2 6 C-1.34 4.02 -0.68 2.04 0 0 Z " fill="#13B6F1" transform="translate(121,135)"/>
<path d="M0 0 C-7.26 0.66 -14.52 1.32 -22 2 C-21.34 1.67 -20.68 1.34 -20 1 C-20 0.34 -20 -0.32 -20 -1 C-13.08112344 -2.45660559 -6.39569617 -3.19784808 0 0 Z " fill="#1EA3DF" transform="translate(104,47)"/>
<path d="M0 0 C6.27 0 12.54 0 19 0 C19 0.66 19 1.32 19 2 C13.06 2.33 7.12 2.66 1 3 C0.67 2.01 0.34 1.02 0 0 Z " fill="#F6FEFE" transform="translate(77,105)"/>
<path d="M0 0 C1.625 1.6875 1.625 1.6875 3 4 C2.25 6.625 2.25 6.625 1 9 C0.67 9.66 0.34 10.32 0 11 C-1.65 11 -3.3 11 -5 11 C-4.67 9.68 -4.34 8.36 -4 7 C-3.34 7 -2.68 7 -2 7 C-1.34 4.69 -0.68 2.38 0 0 Z " fill="#CCF1F9" transform="translate(88,65)"/>
<path d="M0 0 C0.33 0 0.66 0 1 0 C1.33848652 1.89492006 1.67056911 3.79098466 2 5.6875 C2.185625 6.74324219 2.37125 7.79898438 2.5625 8.88671875 C2.95068074 11.64904062 3.08259976 14.21742043 3 17 C0.69 16.67 -1.62 16.34 -4 16 C-2.68 15.67 -1.36 15.34 0 15 C0 10.05 0 5.1 0 0 Z " fill="#31AEE2" transform="translate(126,34)"/>
<path d="M0 0 C-0.33 1.98 -0.66 3.96 -1 6 C-1.99 6.33 -2.98 6.66 -4 7 C-4.66 6.01 -5.32 5.02 -6 4 C-6.99 4 -7.98 4 -9 4 C-8.67 3.01 -8.34 2.02 -8 1 C-5.17884816 -0.07009208 -3.09455459 0 0 0 Z " fill="#EDFCF9" transform="translate(94,62)"/>
<path d="M0 0 C3.73487777 0.4979837 5.81237635 0.87491756 9 3 C9 3.99 9 4.98 9 6 C2.375 6.25 2.375 6.25 -1 4 C-0.01 3.67 0.98 3.34 2 3 C1.34 2.67 0.68 2.34 0 2 C0 1.34 0 0.68 0 0 Z " fill="#CAF6FB" transform="translate(141,55)"/>
<path d="M0 0 C-1.08073852 2.16147703 -2.19363264 3.41039672 -4 5 C-4.66 5 -5.32 5 -6 5 C-6.103125 5.639375 -6.20625 6.27875 -6.3125 6.9375 C-6.539375 7.618125 -6.76625 8.29875 -7 9 C-7.99 9.33 -8.98 9.66 -10 10 C-10.33 8.35 -10.66 6.7 -11 5 C-9.73461631 4.15841464 -8.46246221 3.32700252 -7.1875 2.5 C-6.47980469 2.0359375 -5.77210938 1.571875 -5.04296875 1.09375 C-3 0 -3 0 0 0 Z " fill="#26B5E6" transform="translate(134,78)"/>
<path d="M0 0 C1.32 0.33 2.64 0.66 4 1 C4 2.32 4 3.64 4 5 C5.6396875 4.6596875 5.6396875 4.6596875 7.3125 4.3125 C11 4 11 4 12.9375 5.4375 C13.288125 5.953125 13.63875 6.46875 14 7 C13.01 7.495 13.01 7.495 12 8 C12 7.34 12 6.68 12 6 C10.02 6.33 8.04 6.66 6 7 C5.67 7.99 5.34 8.98 5 10 C4.16121545 8.71186658 3.32913217 7.41936744 2.5 6.125 C2.0359375 5.40570313 1.571875 4.68640625 1.09375 3.9453125 C0 2 0 2 0 0 Z " fill="#49B4DA" transform="translate(114,66)"/>
<path d="M0 0 C0.33 0 0.66 0 1 0 C1.1875 2.3125 1.1875 2.3125 1 5 C-0.4375 6.625 -0.4375 6.625 -2 8 C-2.33 8.99 -2.66 9.98 -3 11 C-3.99 10.67 -4.98 10.34 -6 10 C-6 6.433255 -5.36308045 5.89456323 -3.0625 3.3125 C-2.51722656 2.68988281 -1.97195312 2.06726563 -1.41015625 1.42578125 C-0.94480469 0.95527344 -0.47945312 0.48476562 0 0 Z " fill="#18B5ED" transform="translate(139,132)"/>
<path d="M0 0 C2.76223278 2.76223278 2.57856291 5.20706617 3 9 C2.34 8.01 1.68 7.02 1 6 C1 9.96 1 13.92 1 18 C0.67 18 0.34 18 0 18 C-0.38846807 15.37634644 -0.76124888 12.75209144 -1.125 10.125 C-1.23714844 9.37863281 -1.34929687 8.63226563 -1.46484375 7.86328125 C-1.72766446 5.91840803 -1.8716515 3.95834962 -2 2 C-1.34 1.34 -0.68 0.68 0 0 Z " fill="#C4F3FC" transform="translate(122,83)"/>
<path d="M0 0 C3.33333333 1.33333333 6.66666667 2.66666667 10 4 C10 5.98 10 7.96 10 10 C9.67 10 9.34 10 9 10 C9 8.35 9 6.7 9 5 C8.2575 4.87625 7.515 4.7525 6.75 4.625 C4.19858515 4.04513299 2.2732427 3.26291261 0 2 C0.33 2.99 0.66 3.98 1 5 C-1.475 6.485 -1.475 6.485 -4 8 C-2.25 2.25 -2.25 2.25 0 0 Z " fill="#34ABDC" transform="translate(69,78)"/>
<path d="M0 0 C0.90878906 0.29003906 0.90878906 0.29003906 1.8359375 0.5859375 C7.83842217 2.45132504 13.8158897 3.88159707 20 5 C20 5.33 20 5.66 20 6 C18.22950311 6.05410687 16.45853151 6.09284119 14.6875 6.125 C13.20830078 6.15980469 13.20830078 6.15980469 11.69921875 6.1953125 C9 6 9 6 6 4 C4.01200182 3.29835358 2.01301483 2.62627128 0 2 C0 1.34 0 0.68 0 0 Z " fill="#26B3E7" transform="translate(72,159)"/>
<path d="M0 0 C2.32509781 2.13802098 3.82167236 4.18598137 5.25 7 C5.60578125 7.680625 5.9615625 8.36125 6.328125 9.0625 C7 11 7 11 6 14 C4.02 14.33 2.04 14.66 0 15 C0.66 14.34 1.32 13.68 2 13 C2.99 13 3.98 13 5 13 C4.505 12.071875 4.01 11.14375 3.5 10.1875 C2 7 2 7 2 4 C1.34 4 0.68 4 0 4 C0 2.68 0 1.36 0 0 Z " fill="#34AFE0" transform="translate(110,68)"/>
<path d="M0 0 C3.3 0 6.6 0 10 0 C10 0.66 10 1.32 10 2 C11.98 2.66 13.96 3.32 16 4 C12.51799235 5.20655614 10.35462394 4.78332187 6.875 3.6875 C6.00617188 3.42324219 5.13734375 3.15898437 4.2421875 2.88671875 C2 2 2 2 0 0 Z " fill="#23B2E9" transform="translate(78,158)"/>
<path d="M0 0 C2.475 0.99 2.475 0.99 5 2 C4.32829194 5.8063457 3.27253436 9.35206816 2 13 C1.67 13 1.34 13 1 13 C0.67 8.71 0.34 4.42 0 0 Z " fill="#1BA6EB" transform="translate(40,78)"/>
<path d="M0 0 C0.33 0.99 0.66 1.98 1 3 C2.32 2.67 3.64 2.34 5 2 C4.34 3.65 3.68 5.3 3 7 C2.67 6.34 2.34 5.68 2 5 C1.01 5 0.02 5 -1 5 C-1.33 5.99 -1.66 6.98 -2 8 C-2.99 8.33 -3.98 8.66 -5 9 C-3.7508258 5.54074837 -2.32472205 2.85306797 0 0 Z " fill="#CEF3F9" transform="translate(52,69)"/>
<path d="M0 0 C0.99 0.33 1.98 0.66 3 1 C2.175 1.53625 1.35 2.0725 0.5 2.625 C-3.4540456 5.25472411 -7.22311074 8.124196 -11 11 C-10.38722388 8.03824877 -9.74627478 6.61941217 -8 4 C-6.35448038 3.28272222 -4.68577711 2.61674772 -3 2 C-2.01 1.34 -1.02 0.68 0 0 Z " fill="#2CAAE1" transform="translate(67,54)"/>
<path d="M0 0 C0 0.66 0 1.32 0 2 C1.65 2 3.3 2 5 2 C5.33 3.32 5.66 4.64 6 6 C2.7 5.34 -0.6 4.68 -4 4 C-4 3.01 -4 2.02 -4 1 C-2 0 -2 0 0 0 Z " fill="#22AEED" transform="translate(143,51)"/>
<path d="M0 0 C-2.97 4.95 -2.97 4.95 -6 10 C-6.33 9.01 -6.66 8.02 -7 7 C-6.67 6.34 -6.34 5.68 -6 5 C-6.66 5 -7.32 5 -8 5 C-7.67 3.35 -7.34 1.7 -7 0 C-3.98968256 -0.93423645 -3.13349732 -1.04449911 0 0 Z " fill="#16A6E9" transform="translate(65,78)"/>
<path d="M0 0 C0.66 0 1.32 0 2 0 C2.28875 0.598125 2.5775 1.19625 2.875 1.8125 C4.04742026 4.19327792 4.04742026 4.19327792 6 7 C5.01 7 4.02 7 3 7 C3.66 7.33 4.32 7.66 5 8 C5 8.99 5 9.98 5 11 C4.01 10.67 3.02 10.34 2 10 C1.6278958 8.67696283 1.29369827 7.34262065 1 6 C0.34 5.67 -0.32 5.34 -1 5 C-0.67 3.35 -0.34 1.7 0 0 Z " fill="#C8F5FB" transform="translate(126,65)"/>
<path d="M0 0 C0.66 0.33 1.32 0.66 2 1 C1.01 2.485 1.01 2.485 0 4 C0.99 4.33 1.98 4.66 3 5 C2.34 5 1.68 5 1 5 C1 5.66 1 6.32 1 7 C0.01 7.33 -0.98 7.66 -2 8 C-2.33 7.34 -2.66 6.68 -3 6 C-4.65 6.66 -6.3 7.32 -8 8 C-5.33333333 5.33333333 -2.66666667 2.66666667 0 0 Z " fill="#D0F5FC" transform="translate(66,56)"/>
<path d="M0 0 C0.66 0 1.32 0 2 0 C3.4606285 2.64738916 4 3.89448334 4 7 C2.02 7 0.04 7 -2 7 C-2 6.34 -2 5.68 -2 5 C-3.32 4.67 -4.64 4.34 -6 4 C-4.02 4 -2.04 4 0 4 C0 2.68 0 1.36 0 0 Z " fill="#15AEF4" transform="translate(106,41)"/>
<path d="M0 0 C0.33 0 0.66 0 1 0 C1.28875 1.0725 1.5775 2.145 1.875 3.25 C2.82865883 6.81795 2.82865883 6.81795 4.125 9.25 C5 11 5 11 5 14 C4.34 14 3.68 14 3 14 C-1.07877462 7.10284464 -1.07877462 7.10284464 -0.75 2.5 C-0.5025 1.675 -0.255 0.85 0 0 Z " fill="#FAFDF7" transform="translate(44,117)"/>
<path d="M0 0 C3.29804771 0.56862892 4.80019989 1.50022714 7 4 C7.66 4.66 8.32 5.32 9 6 C9.26991906 8.68839385 9.08737357 11.29141936 9 14 C8.34 13.01 7.68 12.02 7 11 C6.51402344 10.27683594 6.02804688 9.55367187 5.52734375 8.80859375 C5.00269531 8.02613281 4.47804687 7.24367188 3.9375 6.4375 C3.41027344 5.65246094 2.88304687 4.86742188 2.33984375 4.05859375 C1 2 1 2 0 0 Z " fill="#1FAFE9" transform="translate(135,74)"/>
<path d="M0 0 C1.65 0 3.3 0 5 0 C5 1.98 5 3.96 5 6 C2 6 2 6 -1 4 C-0.67 2.68 -0.34 1.36 0 0 Z " fill="#1BABEE" transform="translate(77,73)"/>
<path d="M0 0 C2.10921555 1.90509792 3.75310292 3.45682641 4.9375 6.0625 C4.958125 6.701875 4.97875 7.34125 5 8 C4.01 8.99 3.02 9.98 2 11 C0.68 8.03 -0.64 5.06 -2 2 C-1.34 2 -0.68 2 0 2 C0 1.34 0 0.68 0 0 Z " fill="#D2F9FB" transform="translate(114,68)"/>
<path d="M0 0 C0.33 0 0.66 0 1 0 C1.48108275 1.41601714 1.95978141 2.83284437 2.4375 4.25 C2.83775391 5.43335938 2.83775391 5.43335938 3.24609375 6.640625 C3.91954708 8.74821988 4.49150595 10.84753973 5 13 C1.60582235 9.87378374 -0.6062718 7.43458973 -2 3 C-1.34 3 -0.68 3 0 3 C0 2.01 0 1.02 0 0 Z " fill="#1EAFE8" transform="translate(55,131)"/>
<path d="M0 0 C0.66 0.33 1.32 0.66 2 1 C-1.44615385 6.78461538 -1.44615385 6.78461538 -4.25 7.875 C-4.8275 7.91625 -5.405 7.9575 -6 8 C-6.66 7.01 -7.32 6.02 -8 5 C-6.68 5 -5.36 5 -4 5 C-4 4.34 -4 3.68 -4 3 C-3.01 2.67 -2.02 2.34 -1 2 C-0.67 1.34 -0.34 0.68 0 0 Z " fill="#23B6EB" transform="translate(136,126)"/>
<path d="M0 0 C1.37687022 3.71754959 0.46151233 5.42741432 -1 9 C-1.4563812 11.66387722 -1.72626861 14.30830799 -2 17 C-2.66 17 -3.32 17 -4 17 C-3.63223832 10.69732561 -2.83374078 5.66748157 0 0 Z " fill="#31ACE2" transform="translate(63,87)"/>
<path d="M0 0 C0.33 0 0.66 0 1 0 C1 1.65 1 3.3 1 5 C0.01 5 -0.98 5 -2 5 C-3.73662334 8.22515763 -4.8905928 11.51329166 -6 15 C-6.66 15 -7.32 15 -8 15 C-6.728373 8.8961904 -4.15003315 4.65820047 0 0 Z " fill="#42B5E4" transform="translate(58,70)"/>
<path d="M0 0 C0.33 1.32 0.66 2.64 1 4 C-0.64666203 3.8864371 -2.29236082 3.75882619 -3.9375 3.625 C-4.85402344 3.55539063 -5.77054687 3.48578125 -6.71484375 3.4140625 C-7.84599609 3.20910156 -7.84599609 3.20910156 -9 3 C-9.33 2.34 -9.66 1.68 -10 1 C-2.25 0 -2.25 0 0 0 Z " fill="#F4FAF8" transform="translate(92,145)"/>
<path d="M0 0 C0.33 0.99 0.66 1.98 1 3 C-1.97 2.505 -1.97 2.505 -5 2 C-5 3.32 -5 4.64 -5 6 C-4.34 6.33 -3.68 6.66 -3 7 C-3.66 8.32 -4.32 9.64 -5 11 C-5.33 11 -5.66 11 -6 11 C-6 7.7 -6 4.4 -6 1 C-2 0 -2 0 0 0 Z " fill="#06B1F7" transform="translate(110,134)"/>
<path d="M0 0 C0.99 0 1.98 0 3 0 C3 2.31 3 4.62 3 7 C1.35 6.67 -0.3 6.34 -2 6 C-1.125 1.125 -1.125 1.125 0 0 Z " fill="#EEF9F8" transform="translate(71,71)"/>
<path d="M0 0 C2.17854707 3.2678206 3.49760034 6.38058265 5 10 C3.02 10.99 3.02 10.99 1 12 C0.01751476 7.9472484 -0.08159574 4.16138263 0 0 Z " fill="#E9FCFD" transform="translate(128,39)"/>
<path d="M0 0 C0.33 0.99 0.66 1.98 1 3 C-0.65 3 -2.3 3 -4 3 C-3.67 4.65 -3.34 6.3 -3 8 C-5.475 7.01 -5.475 7.01 -8 6 C-6.24081631 1.94034532 -4.71412298 0 0 0 Z " fill="#39AEDC" transform="translate(82,133)"/>
<path d="M0 0 C0.33 0 0.66 0 1 0 C0.88512252 1.58409994 0.75765492 3.16728963 0.625 4.75 C0.55539063 5.63171875 0.48578125 6.5134375 0.4140625 7.421875 C0.00149945 9.99066382 -0.71160957 11.75841015 -2 14 C-2.66 14 -3.32 14 -4 14 C-3.52372025 12.04096255 -3.04388577 10.08278903 -2.5625 8.125 C-2.29566406 7.03445312 -2.02882812 5.94390625 -1.75390625 4.8203125 C-1 2 -1 2 0 0 Z " fill="#29B5E2" transform="translate(147,112)"/>
<path d="M0 0 C0 0.66 0 1.32 0 2 C-0.99 2.33 -1.98 2.66 -3 3 C-2.34 3.66 -1.68 4.32 -1 5 C-3.475 6.485 -3.475 6.485 -6 8 C-6 7.01 -6 6.02 -6 5 C-6.66 4.67 -7.32 4.34 -8 4 C-2.25 0 -2.25 0 0 0 Z " fill="#BFF4FA" transform="translate(80,129)"/>
<path d="M0 0 C0.66 0 1.32 0 2 0 C2.33 1.98 2.66 3.96 3 6 C3.99 6.33 4.98 6.66 6 7 C6.33 8.98 6.66 10.96 7 13 C4.64283596 10.84545751 3.21033856 8.80280126 1.8125 5.9375 C1.29623047 4.89916016 1.29623047 4.89916016 0.76953125 3.83984375 C0 2 0 2 0 0 Z " fill="#28ACE2" transform="translate(61,118)"/>
<path d="M0 0 C1.70884005 1.62339805 3.37446717 3.29319053 5 5 C5 5.66 5 6.32 5 7 C4.34 7 3.68 7 3 7 C3.33 7.99 3.66 8.98 4 10 C3.34 10 2.68 10 2 10 C1.34 8.35 0.68 6.7 0 5 C0.66 5 1.32 5 2 5 C1.34 3.35 0.68 1.7 0 0 Z " fill="#BDF3FB" transform="translate(136,76)"/>
<path d="M0 0 C2.6875 0.3125 2.6875 0.3125 5 1 C3.35 2.65 1.7 4.3 0 6 C-0.33 5.34 -0.66 4.68 -1 4 C-1.66 3.67 -2.32 3.34 -3 3 C-1.8125 1.4375 -1.8125 1.4375 0 0 Z " fill="#E2F9FC" transform="translate(129,60)"/>
<path d="M0 0 C4.875 1.75 4.875 1.75 6 4 C3.3125 4.75 3.3125 4.75 0 5 C-2.875 3.0625 -2.875 3.0625 -5 1 C-2.525 1.495 -2.525 1.495 0 2 C0 1.34 0 0.68 0 0 Z " fill="#C3F4FD" transform="translate(74,76)"/>
<path d="M0 0 C2.22825644 2.22825644 2.69239369 3.65761628 3.625 6.625 C4.01558594 7.85089844 4.01558594 7.85089844 4.4140625 9.1015625 C4.60742188 9.72804688 4.80078125 10.35453125 5 11 C4.34 11 3.68 11 3 11 C3 10.34 3 9.68 3 9 C2.34 9 1.68 9 1 9 C0.67 6.03 0.34 3.06 0 0 Z " fill="#C9F2F9" transform="translate(134,43)"/>
<path d="M0 0 C2.31 1.65 4.62 3.3 7 5 C3.79937313 6.60031344 1.27728194 5.03173691 -2 4 C-2 3.34 -2 2.68 -2 2 C-1.34 2 -0.68 2 0 2 C0 1.34 0 0.68 0 0 Z " fill="#1CB1EA" transform="translate(58,149)"/>
<path d="M0 0 C0.99 0.33 1.98 0.66 3 1 C3 2.98 3 4.96 3 7 C2.01 6.67 1.02 6.34 0 6 C0 5.34 0 4.68 0 4 C-0.66 3.67 -1.32 3.34 -2 3 C-1.34 2.01 -0.68 1.02 0 0 Z " fill="#E5F7FA" transform="translate(82,129)"/>
<path d="M0 0 C3 4 3 4 2.9375 6.125 C2 8 2 8 -2 10 C-1.34 6.7 -0.68 3.4 0 0 Z " fill="#BEF3FA" transform="translate(122,114)"/>
<path d="M0 0 C0.33 0 0.66 0 1 0 C1 2.31 1 4.62 1 7 C0.67 6.34 0.34 5.68 0 5 C-3.02934491 4.34227572 -3.02934491 4.34227572 -6 4 C-5.67 3.01 -5.34 2.02 -5 1 C-4.01 1 -3.02 1 -2 1 C-1.67 1.66 -1.34 2.32 -1 3 C-0.67 2.01 -0.34 1.02 0 0 Z " fill="#0BA7EE" transform="translate(77,83)"/>
<path d="M0 0 C1.32 0.66 2.64 1.32 4 2 C4 2.66 4 3.32 4 4 C2.02 4.66 0.04 5.32 -2 6 C-1.125 1.125 -1.125 1.125 0 0 Z " fill="#0DAFEF" transform="translate(132,79)"/>
<path d="M0 0 C0.66 0.66 1.32 1.32 2 2 C1.34 3.65 0.68 5.3 0 7 C-0.66 7 -1.32 7 -2 7 C-2 6.34 -2 5.68 -2 5 C-2.66 4.67 -3.32 4.34 -4 4 C-2.68 2.68 -1.36 1.36 0 0 Z " fill="#DFFAFA" transform="translate(85,75)"/>
<path d="M0 0 C0.66 1.32 1.32 2.64 2 4 C1.01 4.495 1.01 4.495 0 5 C-0.66 4.67 -1.32 4.34 -2 4 C-2.33 4.99 -2.66 5.98 -3 7 C-3.99 6.67 -4.98 6.34 -6 6 C-4 4 -2 2 0 0 Z " fill="#32ACE3" transform="translate(79,69)"/>
<path d="M0 0 C-1.44253657 3.36591866 -3.33264727 5.51047079 -6 8 C-6.33 6.68 -6.66 5.36 -7 4 C-6.34 4 -5.68 4 -5 4 C-5 3.01 -5 2.02 -5 1 C-2 0 -2 0 0 0 Z " fill="#16A3E4" transform="translate(55,65)"/>
<path d="M0 0 C0 0.99 0 1.98 0 3 C-4.43076923 5.09230769 -4.43076923 5.09230769 -7.3125 4.625 C-7.869375 4.41875 -8.42625 4.2125 -9 4 C-2.25 0 -2.25 0 0 0 Z " fill="#35BCE7" transform="translate(128,144)"/>
<path d="M0 0 C0.66 0 1.32 0 2 0 C2.66 1.65 3.32 3.3 4 5 C2.35 5.33 0.7 5.66 -1 6 C-0.67 4.02 -0.34 2.04 0 0 Z " fill="#EAF7F9" transform="translate(119,128)"/>
<path d="M0 0 C2.64 0 5.28 0 8 0 C7.01 0.495 7.01 0.495 6 1 C6 1.66 6 2.32 6 3 C4.02 3 2.04 3 0 3 C0 2.01 0 1.02 0 0 Z " fill="#DBF8FA" transform="translate(104,85)"/>
<path d="M0 0 C1.32 0 2.64 0 4 0 C4 1.98 4 3.96 4 6 C3.34 6 2.68 6 2 6 C2 5.34 2 4.68 2 4 C1.34 4 0.68 4 0 4 C0 2.68 0 1.36 0 0 Z " fill="#09A6F5" transform="translate(94,66)"/>
<path d="M0 0 C0.99 0.33 1.98 0.66 3 1 C2.67 1.66 2.34 2.32 2 3 C2.99 3.33 3.98 3.66 5 4 C3.02 4.99 3.02 4.99 1 6 C0.34 5.34 -0.32 4.68 -1 4 C-0.625 1.875 -0.625 1.875 0 0 Z " fill="#08B4FB" transform="translate(78,135)"/>
<path d="M0 0 C0 0.99 0 1.98 0 3 C-3.3 3 -6.6 3 -10 3 C-4 0 -4 0 0 0 Z " fill="#36B4E2" transform="translate(120,85)"/>
<path d="M0 0 C0.99 0 1.98 0 3 0 C3.33 1.65 3.66 3.3 4 5 C3.34 5 2.68 5 2 5 C1.67 5.66 1.34 6.32 1 7 C0.67 4.69 0.34 2.38 0 0 Z " fill="#D6F8FB" transform="translate(139,83)"/>
<path d="M0 0 C-0.66 2.31 -1.32 4.62 -2 7 C-2.66 7 -3.32 7 -4 7 C-4 5.02 -4 3.04 -4 1 C-2 0 -2 0 0 0 Z " fill="#F6FCF6" transform="translate(49,83)"/>
<path d="M0 0 C0.33 0.66 0.66 1.32 1 2 C0.67 2.66 0.34 3.32 0 4 C0.66 4.33 1.32 4.66 2 5 C1 6 1 6 -1.5625 6.0625 C-2.7690625 6.0315625 -2.7690625 6.0315625 -4 6 C-2.84826645 3.53199953 -1.95216435 1.95216435 0 0 Z " fill="#D2F6FC" transform="translate(112,50)"/>
<path d="M0 0 C1.65 0 3.3 0 5 0 C4.6875 1.9375 4.6875 1.9375 4 4 C3.01 4.33 2.02 4.66 1 5 C0.67 3.35 0.34 1.7 0 0 Z " fill="#1AABEE" transform="translate(123,83)"/>
<path d="M0 0 C1.32 0 2.64 0 4 0 C3.34 1.32 2.68 2.64 2 4 C0.68 4 -0.64 4 -2 4 C-1.34 2.68 -0.68 1.36 0 0 Z " fill="#F1FBF8" transform="translate(68,56)"/>
<path d="M0 0 C2.97 0 5.94 0 9 0 C7 4 7 4 5 6 C5.33 4.35 5.66 2.7 6 1 C4.02 1 2.04 1 0 1 C0 0.67 0 0.34 0 0 Z " fill="#28A6E2" transform="translate(102,50)"/>
<path d="M0 0 C2.64 0.33 5.28 0.66 8 1 C8 1.33 8 1.66 8 2 C6.02 2 4.04 2 2 2 C2 2.66 2 3.32 2 4 C1.01 3.67 0.02 3.34 -1 3 C-0.67 2.01 -0.34 1.02 0 0 Z " fill="#C5F5FB" transform="translate(112,125)"/>
<path d="M0 0 C1.875 0.3125 1.875 0.3125 4 1 C4.66 1.99 5.32 2.98 6 4 C4.68 3.67 3.36 3.34 2 3 C1.34 3.99 0.68 4.98 0 6 C0 4.02 0 2.04 0 0 Z " fill="#1FA9E5" transform="translate(104,64)"/>
<path d="M0 0 C5.75 0.75 5.75 0.75 8 3 C7.34 3 6.68 3 6 3 C6 3.66 6 4.32 6 5 C4 4 2 3 0 2 C0 1.34 0 0.68 0 0 Z " fill="#07A4F6" transform="translate(64,49)"/>
<path d="M0 0 C0.66 0 1.32 0 2 0 C2 2.31 2 4.62 2 7 C1.01 6.67 0.02 6.34 -1 6 C-1.042721 4.33388095 -1.04063832 2.66617115 -1 1 C-0.67 0.67 -0.34 0.34 0 0 Z " fill="#00AEFB" transform="translate(124,42)"/>
</svg>
